<?xml version="1.0" standalone="no"?>
<!DOCTYPE svg PUBLIC "-//W3C//DTD SVG 20010904//EN"
 "http://www.w3.org/TR/2001/REC-SVG-20010904/DTD/svg10.dtd">
<svg version="1.0" xmlns="http://www.w3.org/2000/svg"
 width="160.000000pt" height="160.000000pt" viewBox="0 0 160.000000 160.000000"
 preserveAspectRatio="xMidYMid meet">

<g transform="translate(0.000000,160.000000) scale(0.100000,-0.100000)"
fill="#000000" stroke="none">
<path d="M698 1440 c-144 -26 -249 -81 -353 -185 -132 -132 -189 -270 -189
-455 0 -181 60 -328 188 -456 128 -128 275 -188 456 -188 181 0 328 60 456
188 128 128 188 275 188 456 0 181 -60 328 -188 456 -79 79 -167 132 -270 163
-79 24 -217 34 -288 21z m231 -105 c194 -46 360 -212 406 -407 69 -293 -116
-594 -407 -663 -126 -30 -263 -13 -381 46 -82 42 -194 154 -236 236 -108 215
-71 462 96 635 136 141 331 198 522 153z"/>
<path d="M733 1180 c-38 -23 -53 -48 -53 -90 0 -42 23 -84 55 -98 36 -17 86
-15 113 4 25 17 52 64 52 89 0 36 -34 88 -66 101 -44 19 -63 18 -101 -6z"/>
<path d="M723 893 l-123 -4 0 -24 c0 -22 4 -25 36 -25 74 0 74 0 74 -193 0
-121 -4 -177 -12 -185 -7 -7 -29 -12 -50 -12 -34 0 -38 -3 -38 -25 l0 -25 195
0 195 0 0 25 c0 22 -4 25 -34 25 -64 0 -66 7 -66 241 l0 209 -27 -2 c-16 -1
-83 -4 -150 -5z"/>
</g>
</svg>
