<svg id="svg" version="1.1" xmlns="http://www.w3.org/2000/svg" xmlns:xlink="http://www.w3.org/1999/xlink" width="400" height="400" viewBox="0, 0, 400,400"><g id="svgg"><path id="path0" d="M66.924 99.918 C 65.103 100.577,64.111 101.240,62.862 102.633 C 62.402 103.146,62.001 104.001,61.613 105.294 C 61.094 107.024,60.945 299.070,61.461 300.649 C 62.413 303.560,64.711 305.464,67.930 306.006 C 68.773 306.148,107.715 306.157,197.788 306.037 L 326.442 305.865 327.716 305.262 C 329.870 304.241,331.079 302.878,331.808 300.649 C 332.324 299.070,332.175 107.024,331.656 105.294 C 331.114 103.487,330.833 103.014,329.535 101.729 C 328.866 101.067,327.213 100.172,325.828 99.723 C 324.895 99.421,316.365 99.403,196.428 99.459 L 68.027 99.519 66.924 99.918 M225.503 121.165 C 225.726 121.249,225.949 121.475,225.999 121.668 C 226.078 121.976,189.095 283.074,188.763 283.867 C 188.440 284.638,188.118 284.660,178.243 284.572 C 168.362 284.484,168.250 284.476,167.938 283.787 C 167.760 283.397,204.146 123.118,204.778 121.505 C 204.892 121.214,205.171 120.951,205.422 120.899 C 206.143 120.749,225.059 121.000,225.503 121.165 M154.807 143.363 C 155.052 144.007,154.842 167.623,154.586 168.269 C 154.468 168.567,146.385 175.141,133.341 185.550 C 115.348 199.907,112.295 202.414,112.345 202.789 C 112.399 203.195,153.558 235.192,154.025 235.192 C 154.512 235.192,154.609 237.340,154.659 249.262 C 154.714 262.178,154.718 262.109,153.939 261.815 C 153.345 261.590,86.398 209.940,85.146 208.741 C 83.821 207.471,83.846 207.585,83.846 202.777 L 83.846 198.414 84.452 197.312 C 84.785 196.706,85.223 196.107,85.426 195.981 C 85.628 195.854,99.526 185.085,116.310 172.050 C 133.094 159.014,148.412 147.120,150.350 145.617 C 153.984 142.798,154.494 142.540,154.807 143.363 M274.038 169.245 C 311.299 198.178,309.106 196.425,309.738 197.783 C 310.234 198.849,310.443 206.672,309.998 207.504 C 309.539 208.361,306.319 210.896,274.277 235.624 C 241.960 260.565,239.811 262.184,239.475 261.845 C 238.947 261.313,239.486 235.192,240.025 235.192 C 240.576 235.192,281.635 203.207,281.635 202.778 C 281.635 202.347,240.777 169.378,239.759 168.987 C 239.276 168.802,239.258 168.402,239.151 155.828 C 239.049 143.759,239.091 142.882,239.778 142.886 C 239.953 142.887,255.370 154.749,274.038 169.245 " stroke="none" fill="#000000" fill-rule="evenodd"></path></g></svg>