<?xml version="1.0" encoding="UTF-8"?>
<!-- Generated by Pixelmator Pro 3.6.17 -->
<svg width="24" height="24" viewBox="0 0 24 24" xmlns="http://www.w3.org/2000/svg">
    <path id="Path" fill="none" stroke="#000000" stroke-width="1.5" stroke-linecap="round" stroke-linejoin="round" d="M 10.268 21 C 10.625278 21.618753 11.285505 21.999912 12 21.999912 C 12.714495 21.999912 13.374722 21.618753 13.732 21"/>
    <path id="path1" fill="none" stroke="#000000" stroke-width="1.5" stroke-linecap="round" stroke-linejoin="round" d="M 13.916 2.313999 C 12.085011 1.696999 10.068933 1.999506 8.499656 3.126705 C 6.930377 4.253904 5.999953 6.067848 6 8 C 6 12.499 4.589 13.956 3.26 15.327 C 2.993517 15.619871 2.924938 16.042395 3.085111 16.404514 C 3.245284 16.766636 3.604038 17.000141 4 17 L 20 17 C 20.395962 17.000141 20.754717 16.766636 20.914888 16.404514 C 21.075062 16.042395 21.006483 15.619871 20.74 15.327 C 20.534204 15.115068 20.338968 14.893133 20.155001 14.662"/>
    <path id="path2" fill="#000000" stroke="#000000" stroke-width="1.5" stroke-linecap="round" stroke-linejoin="round" d="M 21 8 C 21 9.656855 19.656855 11 18 11 C 16.343145 11 15 9.656855 15 8 C 15 6.343145 16.343145 5 18 5 C 19.656855 5 21 6.343145 21 8 Z"/>
</svg>
