<?xml version="1.0" encoding="utf-8"?>
<svg version="1.1" width="935px" height="880px" style="shape-rendering:geometricPrecision; text-rendering:geometricPrecision; image-rendering:optimizeQuality; fill-rule:evenodd; clip-rule:evenodd" xmlns="http://www.w3.org/2000/svg">
  <g>
    <path style="opacity:0.986" fill="#fefefe" d="M 656.5,44.5 C 735.754,40.8701 814.42,45.7034 892.5,59C 894.762,59.6419 896.929,60.4752 899,61.5C 899.414,61.0426 899.914,60.7093 900.5,60.5C 904.045,61.7722 907.545,63.1056 911,64.5C 911.414,64.0426 911.914,63.7093 912.5,63.5C 917.345,65.4621 922.345,66.9621 927.5,68C 927.957,68.414 928.291,68.914 928.5,69.5C 927.352,71.1487 926.019,72.6487 924.5,74C 924.833,74.3333 925.167,74.6667 925.5,75C 895.935,125.057 866.602,175.224 837.5,225.5C 836.672,226.415 835.672,227.081 834.5,227.5C 776.026,215.284 716.859,209.95 657,211.5C 561.121,209.477 468.788,223.811 380,254.5C 299.587,281.816 228.921,325.483 168,385.5C 149.731,406.096 133.398,428.096 119,451.5C 113.399,462.25 107.899,473.417 102.5,485C 102.833,485.333 103.167,485.667 103.5,486C 100.776,491.386 98.2764,496.886 96,502.5C 94.7707,509.086 92.7707,515.419 90,521.5C 88.9272,531.774 86.9272,541.774 84,551.5C 81.7952,577.865 82.1285,604.198 85,630.5C 89.971,660.406 100.304,688.406 116,714.5C 131.023,737.18 147.856,758.347 166.5,778C 183.518,793.691 202.184,807.024 222.5,818C 227.333,824.521 225.666,826.854 217.5,825C 187.007,809.749 157.673,792.415 129.5,773C 120.114,764.943 111.114,756.609 102.5,748C 101.552,747.517 100.552,747.351 99.5,747.5C 99.6495,746.448 99.4828,745.448 99,744.5C 50.9661,701.449 20.7994,648.115 8.5,584.5C 8.60816,583.558 8.94149,582.725 9.5,582C 6.28126,574.921 5.28126,567.588 6.5,560C 4.29561,547.647 3.29561,535.147 3.5,522.5C 4.1405,479.462 12.3072,437.795 28,397.5C 29.1667,395.667 30.3333,393.833 31.5,392C 31.0426,391.586 30.7093,391.086 30.5,390.5C 39.5404,370.752 49.3738,351.419 60,332.5C 85.4953,294.332 115.329,259.832 149.5,229C 233.508,160.334 327.508,111.334 431.5,82C 444.867,77.2924 458.867,73.2924 473.5,70C 494.096,66.1633 514.262,61.9966 534,57.5C 551.053,56.115 568.22,53.9483 585.5,51C 609.304,48.7992 632.971,46.6325 656.5,44.5 Z"/>
  </g>
  <g>
    <path style="opacity:0.847" fill="#b9c2de" d="M 656.5,327.5 C 624.167,327.5 591.833,327.5 559.5,327.5C 591.831,324.88 624.165,324.88 656.5,327.5 Z"/>
  </g>
  <g>
    <path style="opacity: 1; fill: rgb(255, 255, 255);" d="M 559.5,327.5 C 591.833,327.5 624.167,327.5 656.5,327.5C 673.409,327.029 690.076,328.029 706.5,330.5C 722.356,332.592 738.356,334.592 754.5,336.5C 760.838,338.841 767.505,340.174 774.5,340.5C 775.573,341.251 775.74,342.251 775,343.5C 773.476,345.898 771.976,348.231 770.5,350.5C 769.599,351.29 768.932,352.29 768.5,353.5C 766.896,354.287 766.229,355.62 766.5,357.5C 765.248,359.001 764.248,360.668 763.5,362.5C 762.5,362.833 761.833,363.5 761.5,364.5C 761.672,365.492 761.338,366.158 760.5,366.5C 759.326,367.514 758.66,368.847 758.5,370.5C 757.416,373.004 756.083,375.337 754.5,377.5C 753.094,377.973 752.427,378.973 752.5,380.5C 751.226,383.76 749.56,386.76 747.5,389.5C 746.5,389.833 745.833,390.5 745.5,391.5C 745.737,392.791 745.404,393.791 744.5,394.5C 743.094,394.973 742.427,395.973 742.5,397.5C 741.89,399.434 740.89,401.101 739.5,402.5C 737.755,404.033 736.755,406.033 736.5,408.5C 734.403,412.372 732.069,416.039 729.5,419.5C 728.599,420.29 727.932,421.29 727.5,422.5C 727.025,424.784 726.025,426.784 724.5,428.5C 722.273,429.401 721.273,431.067 721.5,433.5C 720.098,435.875 718.765,438.209 717.5,440.5C 716.094,440.973 715.427,441.973 715.5,443.5C 713.737,448.554 711.07,453.22 707.5,457.5C 705.75,458.659 704.75,460.326 704.5,462.5C 704.25,464.674 703.25,466.341 701.5,467.5C 700.326,468.514 699.66,469.847 699.5,471.5C 698.094,471.973 697.427,472.973 697.5,474.5C 696.435,476.525 695.102,478.358 693.5,480C 688.648,480.815 683.981,480.648 679.5,479.5C 678.306,478.223 676.64,477.556 674.5,477.5C 669.187,476.805 663.854,476.471 658.5,476.5C 652.627,476.404 646.96,475.737 641.5,474.5C 629.662,472.843 617.662,471.51 605.5,470.5C 572.503,468 539.503,468 506.5,470.5C 501.156,470.334 495.823,470.501 490.5,471C 482.328,471.95 474.328,473.117 466.5,474.5C 461.866,475.338 456.866,476.005 451.5,476.5C 447.798,476.421 444.132,476.754 440.5,477.5C 438.97,477.64 437.97,478.307 437.5,479.5C 431.556,479.625 425.89,480.625 420.5,482.5C 413.908,483.593 407.575,485.26 401.5,487.5C 399.562,489.163 397.228,489.829 394.5,489.5C 391.918,489.025 389.918,489.692 388.5,491.5C 388.167,491.5 387.833,491.5 387.5,491.5C 384.084,491.528 381.084,492.528 378.5,494.5C 376.799,494.966 375.299,494.966 374,494.5C 373.283,495.044 372.783,495.711 372.5,496.5C 370.302,496.12 368.635,496.787 367.5,498.5C 365.302,498.12 363.635,498.787 362.5,500.5C 360.914,501.174 358.914,501.841 356.5,502.5C 352.764,502.541 349.764,503.874 347.5,506.5C 344.509,506.166 342.176,507.166 340.5,509.5C 337.558,510.304 334.891,511.638 332.5,513.5C 331.035,514.737 329.368,515.737 327.5,516.5C 324.966,516.259 323.3,517.259 322.5,519.5C 319.911,519.461 317.911,520.461 316.5,522.5C 316.5,523.167 316.167,523.5 315.5,523.5C 313.326,523.75 311.659,524.75 310.5,526.5C 309.035,527.737 307.368,528.737 305.5,529.5C 303.821,529.285 302.821,529.952 302.5,531.5C 302.158,532.338 301.492,532.672 300.5,532.5C 298.973,532.427 297.973,533.094 297.5,534.5C 294.63,535.433 292.296,537.1 290.5,539.5C 288.381,541.4 286.047,543.066 283.5,544.5C 279.854,546.482 276.854,549.149 274.5,552.5C 273.833,553.167 273.167,553.833 272.5,554.5C 272.167,554.5 271.833,554.5 271.5,554.5C 269.468,555.048 268.468,556.381 268.5,558.5C 268.167,558.5 267.833,558.5 267.5,558.5C 266.167,558.5 265.5,559.167 265.5,560.5C 262.856,561.144 261.189,562.811 260.5,565.5C 259.167,567.5 257.5,569.167 255.5,570.5C 254.5,570.833 253.833,571.5 253.5,572.5C 250.514,576.817 247.18,580.817 243.5,584.5C 242.167,584.5 241.5,585.167 241.5,586.5C 238.241,590.696 235.241,595.03 232.5,599.5C 230.75,600.659 229.75,602.326 229.5,604.5C 226.878,610.707 223.878,616.707 220.5,622.5C 218.182,624.185 217.182,626.519 217.5,629.5C 217.108,633.342 216.108,637.009 214.5,640.5C 212.926,642.102 212.259,644.102 212.5,646.5C 210.107,660.139 208.441,673.639 207.5,687C 209.251,699.921 211.584,712.754 214.5,725.5C 214.402,727.553 215.069,729.22 216.5,730.5C 217.738,732.214 218.405,734.214 218.5,736.5C 218.796,738.403 219.463,740.07 220.5,741.5C 222.065,743.509 223.065,745.843 223.5,748.5C 223.66,750.153 224.326,751.486 225.5,752.5C 226.906,752.973 227.573,753.973 227.5,755.5C 227.427,757.027 228.094,758.027 229.5,758.5C 231.025,760.216 232.025,762.216 232.5,764.5C 233.026,766.23 234.026,767.564 235.5,768.5C 237.226,770.228 238.559,772.228 239.5,774.5C 239.75,776.674 240.75,778.341 242.5,779.5C 245.167,781.5 247.5,783.833 249.5,786.5C 251.167,790.167 253.833,792.833 257.5,794.5C 259.229,795.236 260.229,796.57 260.5,798.5C 263.619,802.957 267.619,806.291 272.5,808.5C 273.392,811.292 275.392,812.625 278.5,812.5C 280.575,814.719 282.909,816.719 285.5,818.5C 286.627,820.269 286.127,821.603 284,822.5C 280.027,820.301 275.86,818.634 271.5,817.5C 268.515,816.674 265.849,815.341 263.5,813.5C 260.434,811.11 257.1,809.11 253.5,807.5C 250.106,804.779 246.439,802.446 242.5,800.5C 238.742,796.408 234.409,793.074 229.5,790.5C 228.833,790.5 228.5,790.167 228.5,789.5C 227.965,787.554 226.632,786.554 224.5,786.5C 223.5,786.167 222.833,785.5 222.5,784.5C 222.144,782.81 221.144,781.81 219.5,781.5C 218.5,781.167 217.833,780.5 217.5,779.5C 217.5,777.5 216.5,776.5 214.5,776.5C 212.833,775.5 211.5,774.167 210.5,772.5C 209.652,769.112 207.652,766.779 204.5,765.5C 202.937,764.055 201.604,762.389 200.5,760.5C 200.262,758.596 199.262,757.262 197.5,756.5C 197.144,754.81 196.144,753.81 194.5,753.5C 193.5,752.167 192.5,750.833 191.5,749.5C 191.262,747.596 190.262,746.262 188.5,745.5C 188.573,743.973 187.906,742.973 186.5,742.5C 184.025,740.23 182.025,737.563 180.5,734.5C 180.771,732.62 180.104,731.287 178.5,730.5C 178.573,728.973 177.906,727.973 176.5,727.5C 172.551,721.67 169.551,715.336 167.5,708.5C 167.065,705.843 166.065,703.509 164.5,701.5C 163.699,699.958 163.366,698.292 163.5,696.5C 163.25,694.326 162.25,692.659 160.5,691.5C 158.226,684.293 156.226,676.96 154.5,669.5C 154.104,659.959 153.104,650.626 151.5,641.5C 150.374,622.02 151.374,602.687 154.5,583.5C 156.396,580.54 157.396,577.207 157.5,573.5C 157.5,573.167 157.5,572.833 157.5,572.5C 158.785,569.411 159.451,566.078 159.5,562.5C 159.796,560.597 160.463,558.93 161.5,557.5C 162.738,555.786 163.405,553.786 163.5,551.5C 163.232,549.901 163.566,548.568 164.5,547.5C 166.584,544.947 167.917,541.947 168.5,538.5C 168.557,537.391 168.89,536.391 169.5,535.5C 171.245,533.967 172.245,531.967 172.5,529.5C 173.042,526.088 174.375,523.088 176.5,520.5C 178.245,518.967 179.245,516.967 179.5,514.5C 180.11,512.566 181.11,510.899 182.5,509.5C 184.25,508.341 185.25,506.674 185.5,504.5C 185.328,503.508 185.662,502.842 186.5,502.5C 187.906,502.027 188.573,501.027 188.5,499.5C 188.5,499.167 188.5,498.833 188.5,498.5C 190.912,498.306 191.912,496.973 191.5,494.5C 191.5,493.833 191.833,493.5 192.5,493.5C 194.104,492.713 194.771,491.38 194.5,489.5C 195.147,487.859 196.147,486.526 197.5,485.5C 199.997,484.871 201.33,483.204 201.5,480.5C 202.604,478.611 203.937,476.945 205.5,475.5C 206.5,475.167 207.167,474.5 207.5,473.5C 209.794,469.873 212.46,466.539 215.5,463.5C 216.833,462.833 217.833,461.833 218.5,460.5C 218.833,459.833 219.167,459.167 219.5,458.5C 222.811,457.189 225.145,454.855 226.5,451.5C 227.167,450.167 228.167,449.167 229.5,448.5C 232.764,446.906 235.431,444.573 237.5,441.5C 239.569,438.427 242.236,436.094 245.5,434.5C 249.572,432.792 252.905,430.126 255.5,426.5C 255.833,425.5 256.5,424.833 257.5,424.5C 259.027,424.573 260.027,423.906 260.5,422.5C 262.027,422.573 263.027,421.906 263.5,420.5C 266.891,419.471 269.557,417.471 271.5,414.5C 272.795,413.512 274.128,412.512 275.5,411.5C 277.674,411.25 279.341,410.25 280.5,408.5C 284.947,407.385 288.613,405.052 291.5,401.5C 293.027,401.573 294.027,400.906 294.5,399.5C 297.331,398.921 299.664,397.588 301.5,395.5C 302.008,393.767 302.841,393.434 304,394.5C 305.488,392.84 307.321,391.84 309.5,391.5C 312.089,391.539 314.089,390.539 315.5,388.5C 318.948,387.61 321.948,385.943 324.5,383.5C 325.209,382.596 326.209,382.263 327.5,382.5C 329.153,382.34 330.486,381.674 331.5,380.5C 332.209,379.596 333.209,379.263 334.5,379.5C 337.721,379.104 340.388,377.771 342.5,375.5C 345.943,374.941 348.943,373.607 351.5,371.5C 353.553,371.598 355.22,370.931 356.5,369.5C 358.214,368.262 360.214,367.595 362.5,367.5C 368.267,366.469 373.601,364.469 378.5,361.5C 382.936,360.586 386.936,358.919 390.5,356.5C 393.991,354.892 397.658,353.892 401.5,353.5C 414.712,350.614 427.712,347.281 440.5,343.5C 441.919,342.549 443.585,342.216 445.5,342.5C 453.672,341.529 461.672,340.195 469.5,338.5C 478.048,337.286 486.381,335.619 494.5,333.5C 503.096,333.55 511.429,332.55 519.5,330.5C 532.577,328.111 545.91,327.111 559.5,327.5 Z"/>
  </g>
  <g>
    <path style="opacity:0.009" fill="#e9ecf5" d="M 706.5,330.5 C 720.19,331.225 733.857,332.392 747.5,334C 750.004,334.698 752.337,335.531 754.5,336.5C 738.356,334.592 722.356,332.592 706.5,330.5 Z"/>
  </g>
  <g>
    <path style="opacity:0.414" fill="#edf0f6" d="M 519.5,330.5 C 511.429,332.55 503.096,333.55 494.5,333.5C 502.532,331.133 510.865,330.133 519.5,330.5 Z"/>
  </g>
  <g>
    <path style="opacity:0.513" fill="#c9d1e6" d="M 494.5,333.5 C 486.381,335.619 478.048,337.286 469.5,338.5C 467.833,338.5 466.167,338.5 464.5,338.5C 474.226,335.912 484.226,334.245 494.5,333.5 Z"/>
  </g>
  <g>
    <path style="opacity:0.519" fill="#b4bfdc" d="M 754.5,336.5 C 761.562,336.446 768.229,337.779 774.5,340.5C 767.505,340.174 760.838,338.841 754.5,336.5 Z"/>
  </g>
  <g>
    <path style="opacity:0.729" fill="#91a1cc" d="M 464.5,338.5 C 466.167,338.5 467.833,338.5 469.5,338.5C 461.672,340.195 453.672,341.529 445.5,342.5C 451.516,340.252 457.85,338.918 464.5,338.5 Z"/>
  </g>
  <g>
    <path style="opacity:0.446" fill="#d5dbeb" d="M 440.5,343.5 C 427.712,347.281 414.712,350.614 401.5,353.5C 403.556,352.801 405.556,351.801 407.5,350.5C 408.086,350.709 408.586,351.043 409,351.5C 419.156,347.507 429.656,344.841 440.5,343.5 Z"/>
  </g>
  <g>
    <path style="opacity:0.068" fill="#f3f5f9" d="M 770.5,350.5 C 770.715,352.179 770.048,353.179 768.5,353.5C 768.932,352.29 769.599,351.29 770.5,350.5 Z"/>
  </g>
  <g>
    <path style="opacity:0.084" fill="#f8f9fb" d="M 768.5,353.5 C 768.34,355.153 767.674,356.486 766.5,357.5C 766.229,355.62 766.896,354.287 768.5,353.5 Z"/>
  </g>
  <g>
    <path style="opacity:0.477" fill="#e3e7f2" d="M 390.5,356.5 C 386.936,358.919 382.936,360.586 378.5,361.5C 377.5,361.5 376.5,361.5 375.5,361.5C 380.345,359.588 385.345,357.922 390.5,356.5 Z"/>
  </g>
  <g>
    <path style="opacity:0.155" fill="#e8ecf4" d="M 763.5,362.5 C 763.5,363.833 762.833,364.5 761.5,364.5C 761.833,363.5 762.5,362.833 763.5,362.5 Z"/>
  </g>
  <g>
    <path style="opacity:0.867" fill="#acb7d8" d="M 375.5,361.5 C 376.5,361.5 377.5,361.5 378.5,361.5C 373.601,364.469 368.267,366.469 362.5,367.5C 366.608,365.283 370.942,363.283 375.5,361.5 Z"/>
  </g>
  <g>
    <path style="opacity:0.141" fill="#f4f6fa" d="M 760.5,366.5 C 760.771,368.38 760.104,369.713 758.5,370.5C 758.66,368.847 759.326,367.514 760.5,366.5 Z"/>
  </g>
  <g>
    <path style="opacity:0.214" fill="#eff1f7" d="M 356.5,369.5 C 355.22,370.931 353.553,371.598 351.5,371.5C 352.78,370.069 354.447,369.402 356.5,369.5 Z"/>
  </g>
  <g>
    <path style="opacity:0.484" fill="#d6ddec" d="M 351.5,371.5 C 348.943,373.607 345.943,374.941 342.5,375.5C 345.088,373.375 348.088,372.042 351.5,371.5 Z"/>
  </g>
  <g>
    <path style="opacity:0.769" fill="#a0aed3" d="M 342.5,375.5 C 340.388,377.771 337.721,379.104 334.5,379.5C 336.837,377.604 339.504,376.27 342.5,375.5 Z"/>
  </g>
  <g>
    <path style="opacity:0.016" fill="#e5e9f3" d="M 754.5,377.5 C 754.573,379.027 753.906,380.027 752.5,380.5C 752.427,378.973 753.094,377.973 754.5,377.5 Z"/>
  </g>
  <g>
    <path style="opacity:0.914" fill="#b8bfdd" d="M 331.5,380.5 C 330.486,381.674 329.153,382.34 327.5,382.5C 328.287,380.896 329.62,380.229 331.5,380.5 Z"/>
  </g>
  <g>
    <path style="opacity:0.561" fill="#dbe1ee" d="M 324.5,383.5 C 321.948,385.943 318.948,387.61 315.5,388.5C 318.008,386.076 321.008,384.41 324.5,383.5 Z"/>
  </g>
  <g>
    <path style="opacity:0.71" fill="#b4bfdc" d="M 315.5,388.5 C 314.089,390.539 312.089,391.539 309.5,391.5C 311.03,389.654 313.03,388.654 315.5,388.5 Z"/>
  </g>
  <g>
    <path style="opacity:0.129" fill="#eceff6" d="M 747.5,389.5 C 747.5,390.833 746.833,391.5 745.5,391.5C 745.833,390.5 746.5,389.833 747.5,389.5 Z"/>
  </g>
  <g>
    <path style="opacity:0.004" fill="#f9fafc" d="M 744.5,394.5 C 744.573,396.027 743.906,397.027 742.5,397.5C 742.427,395.973 743.094,394.973 744.5,394.5 Z"/>
  </g>
  <g>
    <path style="opacity:0.459" fill="#eaedf5" d="M 301.5,395.5 C 299.664,397.588 297.331,398.921 294.5,399.5C 296.336,397.412 298.669,396.079 301.5,395.5 Z"/>
  </g>
  <g>
    <path style="opacity:0.506" fill="#c0cae1" d="M 294.5,399.5 C 294.027,400.906 293.027,401.573 291.5,401.5C 291.973,400.094 292.973,399.427 294.5,399.5 Z"/>
  </g>
  <g>
    <path style="opacity:0.264" fill="#f0f2f8" d="M 739.5,402.5 C 739.245,404.967 738.245,406.967 736.5,408.5C 736.755,406.033 737.755,404.033 739.5,402.5 Z"/>
  </g>
  <g>
    <path style="opacity:0.867" fill="#9aa7cf" d="M 291.5,401.5 C 288.613,405.052 284.947,407.385 280.5,408.5C 283.894,405.779 287.561,403.446 291.5,401.5 Z"/>
  </g>
  <g>
    <path style="opacity:0.361" fill="#eef1f7" d="M 280.5,408.5 C 279.341,410.25 277.674,411.25 275.5,411.5C 276.659,409.75 278.326,408.75 280.5,408.5 Z"/>
  </g>
  <g>
    <path style="opacity:0.875" fill="#a4b0d4" d="M 271.5,414.5 C 269.557,417.471 266.891,419.471 263.5,420.5C 265.8,418.016 268.467,416.016 271.5,414.5 Z"/>
  </g>
  <g>
    <path style="opacity:0.082" fill="#f6f8fb" d="M 729.5,419.5 C 729.715,421.179 729.048,422.179 727.5,422.5C 727.932,421.29 728.599,420.29 729.5,419.5 Z"/>
  </g>
  <g>
    <path style="opacity:0.965" fill="#adb6d7" d="M 263.5,420.5 C 263.027,421.906 262.027,422.573 260.5,422.5C 260.973,421.094 261.973,420.427 263.5,420.5 Z"/>
  </g>
  <g>
    <path style="opacity:0.359" fill="#e5e9f2" d="M 260.5,422.5 C 260.027,423.906 259.027,424.573 257.5,424.5C 257.973,423.094 258.973,422.427 260.5,422.5 Z"/>
  </g>
  <g>
    <path style="opacity:0.91" fill="#afbad9" d="M 255.5,426.5 C 252.905,430.126 249.572,432.792 245.5,434.5C 248.46,431.355 251.793,428.688 255.5,426.5 Z"/>
  </g>
  <g>
    <path style="opacity:0.153" fill="#eff2f7" d="M 724.5,428.5 C 723.89,430.434 722.89,432.101 721.5,433.5C 721.273,431.067 722.273,429.401 724.5,428.5 Z"/>
  </g>
  <g>
    <path style="opacity:0.159" fill="#edeff6" d="M 717.5,440.5 C 717.573,442.027 716.906,443.027 715.5,443.5C 715.427,441.973 716.094,440.973 717.5,440.5 Z"/>
  </g>
  <g>
    <path style="opacity:0.82" fill="#9daad1" d="M 237.5,441.5 C 235.431,444.573 232.764,446.906 229.5,448.5C 231.569,445.427 234.236,443.094 237.5,441.5 Z"/>
  </g>
  <g>
    <path style="opacity:0.8" fill="#b8c2dd" d="M 226.5,451.5 C 225.145,454.855 222.811,457.189 219.5,458.5C 221.548,455.785 223.882,453.452 226.5,451.5 Z"/>
  </g>
  <g>
    <path style="opacity:0.325" fill="#f7f8fb" d="M 707.5,457.5 C 707.25,459.674 706.25,461.341 704.5,462.5C 704.75,460.326 705.75,458.659 707.5,457.5 Z"/>
  </g>
  <g>
    <path style="opacity:0.647" fill="#f0f3f8" d="M 218.5,460.5 C 217.833,461.833 216.833,462.833 215.5,463.5C 215.5,461.5 216.5,460.5 218.5,460.5 Z"/>
  </g>
  <g>
    <path style="opacity:0.277" fill="#f5f6fa" d="M 701.5,467.5 C 701.771,469.38 701.104,470.713 699.5,471.5C 699.66,469.847 700.326,468.514 701.5,467.5 Z"/>
  </g>
  <g>
    <path style="opacity:0.483" fill="#c0cae2" d="M 605.5,470.5 C 600.833,470.5 596.167,470.5 591.5,470.5C 568.503,469.304 545.503,469.304 522.5,470.5C 517.167,470.5 511.833,470.5 506.5,470.5C 539.503,468 572.503,468 605.5,470.5 Z"/>
  </g>
  <g>
    <path style="opacity:0.219" fill="#ebeef6" d="M 506.5,470.5 C 511.833,470.5 517.167,470.5 522.5,470.5C 514.842,471.415 507.008,472.082 499,472.5C 496.576,472.47 494.243,472.137 492,471.5C 483.657,473.452 475.157,474.452 466.5,474.5C 474.328,473.117 482.328,471.95 490.5,471C 495.823,470.501 501.156,470.334 506.5,470.5 Z"/>
  </g>
  <g>
    <path style="opacity:0.205" fill="#eceff6" d="M 591.5,470.5 C 596.167,470.5 600.833,470.5 605.5,470.5C 617.662,471.51 629.662,472.843 641.5,474.5C 624.567,472.715 607.9,471.382 591.5,470.5 Z"/>
  </g>
  <g>
    <path style="opacity:0.008" fill="#f4f5fa" d="M 699.5,471.5 C 699.573,473.027 698.906,474.027 697.5,474.5C 697.427,472.973 698.094,471.973 699.5,471.5 Z"/>
  </g>
  <g>
    <path style="opacity:0.576" fill="#f6f7fa" d="M 207.5,473.5 C 207.167,474.5 206.5,475.167 205.5,475.5C 205.5,474.167 206.167,473.5 207.5,473.5 Z"/>
  </g>
  <g>
    <path style="opacity:0.791" fill="#9dabd1" d="M 451.5,476.5 C 446.95,477.491 442.283,478.491 437.5,479.5C 437.97,478.307 438.97,477.64 440.5,477.5C 444.132,476.754 447.798,476.421 451.5,476.5 Z"/>
  </g>
  <g>
    <path style="opacity:0.87" fill="#a0add2" d="M 658.5,476.5 C 663.854,476.471 669.187,476.805 674.5,477.5C 676.64,477.556 678.306,478.223 679.5,479.5C 672.358,478.652 665.358,477.652 658.5,476.5 Z"/>
  </g>
  <g>
    <path style="opacity:0.544" fill="#b5c1dd" d="M 437.5,479.5 C 433.308,480.608 428.975,481.608 424.5,482.5C 423.167,482.5 421.833,482.5 420.5,482.5C 425.89,480.625 431.556,479.625 437.5,479.5 Z"/>
  </g>
  <g>
    <path style="opacity:0.953" fill="#a9b4d6" d="M 201.5,480.5 C 201.33,483.204 199.997,484.871 197.5,485.5C 198.604,483.611 199.937,481.945 201.5,480.5 Z"/>
  </g>
  <g>
    <path style="opacity:0.082" fill="#edeff6" d="M 420.5,482.5 C 421.833,482.5 423.167,482.5 424.5,482.5C 417.132,484.985 409.465,486.652 401.5,487.5C 407.575,485.26 413.908,483.593 420.5,482.5 Z"/>
  </g>
  <g>
    <path style="opacity:0.881" fill="#abb6d7" d="M 394.5,489.5 C 392.786,490.738 390.786,491.405 388.5,491.5C 389.918,489.692 391.918,489.025 394.5,489.5 Z"/>
  </g>
  <g>
    <path style="opacity:0.855" fill="#d4dbeb" d="M 194.5,489.5 C 194.771,491.38 194.104,492.713 192.5,493.5C 192.66,491.847 193.326,490.514 194.5,489.5 Z"/>
  </g>
  <g>
    <path style="opacity:0.804" fill="#afbbda" d="M 387.5,491.5 C 384.855,493.31 381.855,494.31 378.5,494.5C 381.084,492.528 384.084,491.528 387.5,491.5 Z"/>
  </g>
  <g>
    <path style="opacity:0.184" fill="#d2d9ea" d="M 378.5,494.5 C 376.898,496.074 374.898,496.741 372.5,496.5C 372.783,495.711 373.283,495.044 374,494.5C 375.299,494.966 376.799,494.966 378.5,494.5 Z"/>
  </g>
  <g>
    <path style="opacity:0.906" fill="#b3bddb" d="M 191.5,494.5 C 191.912,496.973 190.912,498.306 188.5,498.5C 189.512,497.128 190.512,495.795 191.5,494.5 Z"/>
  </g>
  <g>
    <path style="opacity:0.488" fill="#d9dfed" d="M 372.5,496.5 C 371.07,497.537 369.403,498.204 367.5,498.5C 368.635,496.787 370.302,496.12 372.5,496.5 Z"/>
  </g>
  <g>
    <path style="opacity:0.027" fill="#f6f8fb" d="M 367.5,498.5 C 366.365,500.213 364.698,500.88 362.5,500.5C 363.635,498.787 365.302,498.12 367.5,498.5 Z"/>
  </g>
  <g>
    <path style="opacity:0.761" fill="#f1f3f8" d="M 188.5,499.5 C 188.573,501.027 187.906,502.027 186.5,502.5C 186.427,500.973 187.094,499.973 188.5,499.5 Z"/>
  </g>
  <g>
    <path style="opacity:0.791" fill="#aebad9" d="M 356.5,502.5 C 353.645,504.093 350.645,505.426 347.5,506.5C 349.764,503.874 352.764,502.541 356.5,502.5 Z"/>
  </g>
  <g>
    <path style="opacity:0.78" fill="#c8cfe5" d="M 185.5,504.5 C 185.25,506.674 184.25,508.341 182.5,509.5C 182.75,507.326 183.75,505.659 185.5,504.5 Z"/>
  </g>
  <g>
    <path style="opacity:0.086" fill="#d9dfed" d="M 347.5,506.5 C 345.574,508.293 343.241,509.293 340.5,509.5C 342.176,507.166 344.509,506.166 347.5,506.5 Z"/>
  </g>
  <g>
    <path style="opacity:0.082" fill="#eef1f7" d="M 340.5,509.5 C 338.421,511.873 335.754,513.206 332.5,513.5C 334.891,511.638 337.558,510.304 340.5,509.5 Z"/>
  </g>
  <g>
    <path style="opacity:0.824" fill="#dee3ef" d="M 179.5,514.5 C 179.245,516.967 178.245,518.967 176.5,520.5C 176.755,518.033 177.755,516.033 179.5,514.5 Z"/>
  </g>
  <g>
    <path style="opacity:0.749" fill="#b6c0dc" d="M 327.5,516.5 C 326.101,517.89 324.434,518.89 322.5,519.5C 323.3,517.259 324.966,516.259 327.5,516.5 Z"/>
  </g>
  <g>
    <path style="opacity:0.518" fill="#ced5e8" d="M 322.5,519.5 C 320.97,521.346 318.97,522.346 316.5,522.5C 317.911,520.461 319.911,519.461 322.5,519.5 Z"/>
  </g>
  <g>
    <path style="opacity:0.512" fill="#eff1f7" d="M 315.5,523.5 C 314.599,525.727 312.933,526.727 310.5,526.5C 311.659,524.75 313.326,523.75 315.5,523.5 Z"/>
  </g>
  <g>
    <path style="opacity:0.808" fill="#adb8d8" d="M 305.5,529.5 C 304.71,530.401 303.71,531.068 302.5,531.5C 302.821,529.952 303.821,529.285 305.5,529.5 Z"/>
  </g>
  <g>
    <path style="opacity:0.741" fill="#cfd6e9" d="M 172.5,529.5 C 172.245,531.967 171.245,533.967 169.5,535.5C 169.755,533.033 170.755,531.033 172.5,529.5 Z"/>
  </g>
  <g>
    <path style="opacity:0.137" fill="#cfd7e9" d="M 300.5,532.5 C 300.027,533.906 299.027,534.573 297.5,534.5C 297.973,533.094 298.973,532.427 300.5,532.5 Z"/>
  </g>
  <g>
    <path style="opacity:0.02" fill="#f1f3f8" d="M 297.5,534.5 C 295.704,536.9 293.37,538.567 290.5,539.5C 292.296,537.1 294.63,535.433 297.5,534.5 Z"/>
  </g>
  <g>
    <path style="opacity:0.41" fill="#edf0f7" d="M 168.5,538.5 C 167.917,541.947 166.584,544.947 164.5,547.5C 165.083,544.053 166.416,541.053 168.5,538.5 Z"/>
  </g>
  <g>
    <path style="opacity:0.035" fill="#e5e8f3" d="M 283.5,544.5 C 281.12,547.881 278.12,550.547 274.5,552.5C 276.854,549.149 279.854,546.482 283.5,544.5 Z"/>
  </g>
  <g>
    <path style="opacity:0.197" fill="#f2f4f9" d="M 163.5,551.5 C 163.405,553.786 162.738,555.786 161.5,557.5C 161.259,555.102 161.926,553.102 163.5,551.5 Z"/>
  </g>
  <g>
    <path style="opacity:0.004" fill="#fefffe" d="M 272.5,554.5 C 273.833,555.167 273.833,555.167 272.5,554.5 Z"/>
  </g>
  <g>
    <path style="opacity:0.796" fill="#bbc4de" d="M 271.5,554.5 C 270.878,556.122 269.878,557.455 268.5,558.5C 268.468,556.381 269.468,555.048 271.5,554.5 Z"/>
  </g>
  <g>
    <path style="opacity:0.151" fill="#e0e5f0" d="M 267.5,558.5 C 267.5,559.833 266.833,560.5 265.5,560.5C 265.5,559.167 266.167,558.5 267.5,558.5 Z"/>
  </g>
  <g>
    <path style="opacity:0.972" fill="#fefefe" d="M 504.5,561.5 C 554.978,560.761 604.311,564.928 652.5,574C 653.747,575.494 653.747,576.994 652.5,578.5C 639.038,601.258 625.704,624.092 612.5,647C 611.534,648.734 610.034,649.568 608,649.5C 595.735,646.203 583.235,643.703 570.5,642C 516.824,635.682 463.491,637.682 410.5,648C 383.363,654.402 359.029,666.402 337.5,684C 328.584,691.996 321.751,701.496 317,712.5C 315.399,719.949 313.399,726.949 311,733.5C 310.461,762.362 318.127,788.696 334,812.5C 334.977,814.74 335.477,817.073 335.5,819.5C 333.692,819.509 332.025,819.009 330.5,818C 291.087,786.192 272.421,745.192 274.5,695C 281.059,663.774 296.725,638.108 321.5,618C 328.672,613.581 335.672,608.915 342.5,604C 349.9,601.133 356.9,597.466 363.5,593C 377.199,587.936 390.866,582.936 404.5,578C 412.737,576.086 420.904,573.919 429,571.5C 429.333,571.833 429.667,572.167 430,572.5C 440.889,569.733 451.889,567.399 463,565.5C 463.725,566.059 464.558,566.392 465.5,566.5C 478.563,564.348 491.563,562.681 504.5,561.5 Z"/>
  </g>
  <g>
    <path style="opacity:0.139" fill="#f1f3f8" d="M 265.5,560.5 C 264.118,562.549 262.452,564.215 260.5,565.5C 261.189,562.811 262.856,561.144 265.5,560.5 Z"/>
  </g>
  <g>
    <path style="opacity:0.115" fill="#f3f5f9" d="M 159.5,562.5 C 159.451,566.078 158.785,569.411 157.5,572.5C 157.322,568.878 157.989,565.544 159.5,562.5 Z"/>
  </g>
  <g>
    <path style="opacity:0.182" fill="#fefffe" d="M 255.5,570.5 C 255.5,571.833 254.833,572.5 253.5,572.5C 253.833,571.5 254.5,570.833 255.5,570.5 Z"/>
  </g>
  <g>
    <path style="opacity:0.068" fill="#f6f7fb" d="M 157.5,573.5 C 157.396,577.207 156.396,580.54 154.5,583.5C 154.604,579.793 155.604,576.46 157.5,573.5 Z"/>
  </g>
  <g>
    <path style="opacity:0.075" fill="#e7eaf4" d="M 243.5,584.5 C 243.167,585.5 242.5,586.167 241.5,586.5C 241.5,585.167 242.167,584.5 243.5,584.5 Z"/>
  </g>
  <g>
    <path style="opacity:0.122" fill="#f3f5f9" d="M 232.5,599.5 C 232.25,601.674 231.25,603.341 229.5,604.5C 229.75,602.326 230.75,600.659 232.5,599.5 Z"/>
  </g>
  <g>
    <path style="opacity:0.464" fill="#f2f4f9" d="M 220.5,622.5 C 219.912,625.063 218.912,627.396 217.5,629.5C 217.182,626.519 218.182,624.185 220.5,622.5 Z"/>
  </g>
  <g>
    <path style="opacity:0.025" fill="#f8f9fb" d="M 214.5,640.5 C 214.405,642.786 213.738,644.786 212.5,646.5C 212.259,644.102 212.926,642.102 214.5,640.5 Z"/>
  </g>
  <g>
    <path style="opacity:0.353" fill="#f9fafc" d="M 151.5,641.5 C 153.104,650.626 154.104,659.959 154.5,669.5C 152.693,660.398 151.693,651.065 151.5,641.5 Z"/>
  </g>
  <g>
    <path style="opacity:0.176" fill="#f6f8fb" d="M 160.5,691.5 C 162.25,692.659 163.25,694.326 163.5,696.5C 161.75,695.341 160.75,693.674 160.5,691.5 Z"/>
  </g>
  <g>
    <path style="opacity:0.286" fill="#eff2f7" d="M 164.5,701.5 C 166.065,703.509 167.065,705.843 167.5,708.5C 165.902,706.605 164.568,704.438 163.5,702C 163.728,701.601 164.062,701.435 164.5,701.5 Z"/>
  </g>
  <g>
    <path style="opacity:0.049" fill="#eff1f7" d="M 176.5,727.5 C 177.906,727.973 178.573,728.973 178.5,730.5C 177.094,730.027 176.427,729.027 176.5,727.5 Z"/>
  </g>
  <g>
    <path style="opacity:0.265" fill="#f6f7fb" d="M 214.5,725.5 C 215.931,726.78 216.598,728.447 216.5,730.5C 215.069,729.22 214.402,727.553 214.5,725.5 Z"/>
  </g>
  <g>
    <path style="opacity:0.12" fill="#f6f8fb" d="M 178.5,730.5 C 180.104,731.287 180.771,732.62 180.5,734.5C 179.326,733.486 178.66,732.153 178.5,730.5 Z"/>
  </g>
  <g>
    <path style="opacity:0.132" fill="#f5f7fa" d="M 218.5,736.5 C 220.213,737.635 220.88,739.302 220.5,741.5C 219.463,740.07 218.796,738.403 218.5,736.5 Z"/>
  </g>
  <g>
    <path style="opacity:0.047" fill="#e7ebf4" d="M 186.5,742.5 C 187.906,742.973 188.573,743.973 188.5,745.5C 187.094,745.027 186.427,744.027 186.5,742.5 Z"/>
  </g>
  <g>
    <path style="opacity:0.294" fill="#fbfbfd" d="M 188.5,745.5 C 190.262,746.262 191.262,747.596 191.5,749.5C 189.738,748.738 188.738,747.404 188.5,745.5 Z"/>
  </g>
  <g>
    <path style="opacity:0.208" fill="#ebeef5" d="M 223.5,748.5 C 225.104,749.287 225.771,750.62 225.5,752.5C 224.326,751.486 223.66,750.153 223.5,748.5 Z"/>
  </g>
  <g>
    <path style="opacity:0.231" fill="#e1e5f1" d="M 194.5,753.5 C 196.144,753.81 197.144,754.81 197.5,756.5C 195.856,756.19 194.856,755.19 194.5,753.5 Z"/>
  </g>
  <g>
    <path style="opacity:0.225" fill="#fefefe" d="M 227.5,755.5 C 228.906,755.973 229.573,756.973 229.5,758.5C 228.094,758.027 227.427,757.027 227.5,755.5 Z"/>
  </g>
  <g>
    <path style="opacity:0.063" fill="#eef1f7" d="M 197.5,756.5 C 199.262,757.262 200.262,758.596 200.5,760.5C 198.738,759.738 197.738,758.404 197.5,756.5 Z"/>
  </g>
  <g>
    <path style="opacity:0.129" fill="#e6e9f3" d="M 232.5,764.5 C 234.446,765.035 235.446,766.368 235.5,768.5C 234.026,767.564 233.026,766.23 232.5,764.5 Z"/>
  </g>
  <g>
    <path style="opacity:0.169" fill="#e3e7f2" d="M 204.5,765.5 C 207.652,766.779 209.652,769.112 210.5,772.5C 208.273,770.393 206.273,768.06 204.5,765.5 Z"/>
  </g>
  <g>
    <path style="opacity:0.151" fill="#e5e9f3" d="M 239.5,774.5 C 241.25,775.659 242.25,777.326 242.5,779.5C 240.75,778.341 239.75,776.674 239.5,774.5 Z"/>
  </g>
  <g>
    <path style="opacity:0.961" fill="#bbc4df" d="M 214.5,776.5 C 216.5,776.5 217.5,777.5 217.5,779.5C 216.167,778.833 215.167,777.833 214.5,776.5 Z"/>
  </g>
  <g>
    <path style="opacity:0.096" fill="#e5e9f3" d="M 219.5,781.5 C 221.144,781.81 222.144,782.81 222.5,784.5C 220.856,784.19 219.856,783.19 219.5,781.5 Z"/>
  </g>
  <g>
    <path style="opacity:0.888" fill="#acb5d8" d="M 224.5,786.5 C 226.632,786.554 227.965,787.554 228.5,789.5C 226.77,788.974 225.436,787.974 224.5,786.5 Z"/>
  </g>
  <g>
    <path style="opacity:0.557" fill="#e5e9f3" d="M 249.5,786.5 C 252.5,788.833 255.167,791.5 257.5,794.5C 253.833,792.833 251.167,790.167 249.5,786.5 Z"/>
  </g>
  <g>
    <path style="opacity:0.706" fill="#e1e5f1" d="M 229.5,790.5 C 234.409,793.074 238.742,796.408 242.5,800.5C 237.591,797.926 233.258,794.592 229.5,790.5 Z"/>
  </g>
  <g>
    <path style="opacity:0.316" fill="#dee3f0" d="M 260.5,798.5 C 264.798,801.463 268.798,804.797 272.5,808.5C 267.619,806.291 263.619,802.957 260.5,798.5 Z"/>
  </g>
  <g>
    <path style="opacity:0.816" fill="#aab6d7" d="M 242.5,800.5 C 246.439,802.446 250.106,804.779 253.5,807.5C 249.024,806.343 245.358,804.01 242.5,800.5 Z"/>
  </g>
  <g>
    <path style="opacity:0.071" fill="#eceff6" d="M 253.5,807.5 C 257.1,809.11 260.434,811.11 263.5,813.5C 259.402,812.728 256.069,810.728 253.5,807.5 Z"/>
  </g>
  <g>
    <path style="opacity:0.937" fill="#919dcb" d="M 272.5,808.5 C 274.882,809.351 276.882,810.684 278.5,812.5C 275.392,812.625 273.392,811.292 272.5,808.5 Z"/>
  </g>
  <g>
    <path style="opacity:0.196" fill="#dbe0ee" d="M 278.5,812.5 C 282.735,814.071 286.068,816.738 288.5,820.5C 287.451,822.112 285.951,823.112 284,823.5C 279.393,822.146 275.227,820.146 271.5,817.5C 275.86,818.634 280.027,820.301 284,822.5C 286.127,821.603 286.627,820.269 285.5,818.5C 282.909,816.719 280.575,814.719 278.5,812.5 Z"/>
  </g>
</svg>