<?xml version="1.0" encoding="utf-8"?>
<svg width="800px" height="800px" viewBox="0 0 24 24" xmlns="http://www.w3.org/2000/svg">
  <path d="M 22.509 4.309 L 22.509 7.809 L 21.509 7.809 L 21.509 4.309 C 21.507 3.481 20.837 2.81 20.009 2.809 L 16.509 2.809 L 16.509 1.809 L 20.009 1.809 C 21.389 1.811 22.507 2.929 22.509 4.309 Z M 4.009 21.809 C 3.181 21.808 2.51 21.137 2.509 20.309 L 2.509 16.809 L 1.509 16.809 L 1.509 20.309 C 1.51 21.689 2.629 22.807 4.009 22.809 L 7.509 22.809 L 7.509 21.809 L 4.009 21.809 Z M 21.509 20.309 C 21.507 21.137 20.837 21.808 20.009 21.809 L 16.509 21.809 L 16.509 22.809 L 20.009 22.809 C 21.389 22.807 22.507 21.689 22.509 20.309 L 22.509 16.809 L 21.509 16.809 L 21.509 20.309 Z M 2.509 4.309 C 2.51 3.481 3.181 2.81 4.009 2.809 L 7.509 2.809 L 7.509 1.809 L 4.009 1.809 C 2.629 1.811 1.51 2.929 1.509 4.309 L 1.509 7.809 L 2.509 7.809 L 2.509 4.309 Z M 9.509 18.809 L 9.509 5.809 L 8.509 5.809 L 8.509 18.809 L 9.509 18.809 Z M 5.509 5.809 L 5.509 18.809 L 7.509 18.809 L 7.509 5.809 L 5.509 5.809 Z M 13.509 18.809 L 13.509 5.809 L 11.509 5.809 L 11.509 18.809 L 13.509 18.809 Z M 16.509 5.809 L 16.509 18.809 L 18.509 18.809 L 18.509 5.809 L 16.509 5.809 Z M 14.509 5.809 L 14.509 18.809 L 15.509 18.809 L 15.509 5.809 L 14.509 5.809 Z" style="fill: rgb(255, 255, 255);"/>
  <path fill="none" d="M0 0h24v24H0z"/>
</svg>