<svg id="svg" version="1.1" xmlns="http://www.w3.org/2000/svg" xmlns:xlink="http://www.w3.org/1999/xlink" width="400" height="400" viewBox="0, 0, 400,400"><g id="svgg"><path id="path0" d="M43.771 1.357 C 40.931 2.359,36.816 6.044,21.809 21.022 C 1.169 41.622,0.589 42.454,0.141 52.103 C -0.407 63.882,-4.823 58.727,70.124 133.769 L 136.265 199.992 70.110 266.255 C -4.819 341.306,-0.405 336.155,0.141 347.897 C 0.590 357.556,1.165 358.380,21.788 378.906 C 42.462 399.483,43.267 400.018,53.516 399.996 C 64.124 399.974,60.105 403.486,133.789 329.851 L 200.000 263.684 266.211 329.814 C 340.082 403.594,335.446 399.584,346.875 399.599 C 357.371 399.614,357.708 399.390,378.599 378.553 C 398.795 358.407,399.412 357.518,399.859 347.897 C 400.404 336.173,404.816 341.321,329.903 266.273 L 263.747 199.996 329.896 133.739 C 404.818 58.695,400.405 63.845,399.859 52.103 C 399.417 42.594,398.739 41.617,378.563 21.406 C 358.404 1.212,357.503 0.587,347.897 0.141 C 336.173 -0.404,341.321 -4.816,266.275 70.095 L 200.000 136.249 133.740 70.110 C 59.679 -3.818,64.037 -0.031,53.125 0.069 C 49.902 0.099,45.693 0.678,43.771 1.357 " stroke="none" fill="#000000" fill-rule="evenodd"></path></g></svg>