<?xml version="1.0" encoding="UTF-8"?>
<!DOCTYPE svg PUBLIC "-//W3C//DTD SVG 1.1//EN" "http://www.w3.org/Graphics/SVG/1.1/DTD/svg11.dtd">
<svg xmlns="http://www.w3.org/2000/svg" version="1.1" width="1080px" height="1080px" style="shape-rendering:geometricPrecision; text-rendering:geometricPrecision; image-rendering:optimizeQuality; fill-rule:evenodd; clip-rule:evenodd" xmlns:xlink="http://www.w3.org/1999/xlink">
<g><path style="opacity:0.988" fill="#fefffe" d="M 514.5,13.5 C 675.531,9.80806 811.698,65.4747 923,180.5C 1037.67,309.242 1081.67,459.242 1055,630.5C 1027.93,770.565 957.096,882.399 842.5,966C 723.889,1047.26 593.223,1076.93 450.5,1055C 445.015,1053.2 443.515,1049.7 446,1044.5C 465.196,1036.88 484.363,1029.04 503.5,1021C 542.024,1004.08 578.691,984.078 613.5,961C 662.912,955.73 710.579,943.73 756.5,925C 813.126,898.019 859.626,859.186 896,808.5C 845.621,855.441 786.455,885.608 718.5,899C 709.893,899.886 701.559,900.219 693.5,900C 770.923,829.372 826.423,744.206 860,644.5C 862.392,638.774 866.226,634.274 871.5,631C 926.52,601.777 962.687,557.277 980,497.5C 981.589,488.531 982.589,479.531 983,470.5C 969.186,514.309 942.686,548.143 903.5,572C 897.009,575.078 890.675,578.412 884.5,582C 881.258,583.639 877.924,584.639 874.5,585C 898.212,470.855 883.378,362.022 830,258.5C 802.364,209.092 766.197,166.925 721.5,132C 718.966,130.066 716.299,128.732 713.5,128C 774.007,181.796 812.84,248.63 830,328.5C 835.265,357.61 837.265,386.943 836,416.5C 835.988,421.694 835.155,426.694 833.5,431.5C 822.541,405.566 808.041,381.899 790,360.5C 774.229,342.392 756.896,326.059 738,311.5C 737.833,311.833 737.667,312.167 737.5,312.5C 790.96,367.789 819.627,434.122 823.5,511.5C 822.987,525.606 821.487,539.606 819,553.5C 804.986,607.765 783.153,658.431 753.5,705.5C 754.295,638.382 735.795,577.049 698,521.5C 675.412,488.913 648.412,460.58 617,436.5C 668.721,490.627 699.721,555.294 710,630.5C 718.71,731.551 682.544,812.051 601.5,872C 583.345,884.913 564.679,897.08 545.5,908.5C 549.401,892.515 552.901,876.181 556,859.5C 565.899,791.323 552.899,727.99 517,669.5C 502.438,647.77 484.605,629.103 463.5,613.5C 467.813,620.27 472.98,626.936 479,633.5C 520.904,695.93 532.904,763.596 515,836.5C 491.743,920.739 436.576,968.239 349.5,979C 256.648,982.991 184.481,946.491 133,869.5C 102.211,819.343 90.2114,765.01 97,706.5C 100.891,680.819 109.891,657.152 124,635.5C 146.297,602.866 173.13,574.366 204.5,550C 241.049,522.879 280.049,499.546 321.5,480C 363.4,462.38 404.733,443.713 445.5,424C 488.315,401.341 527.149,373.174 562,339.5C 582.763,317.974 600.096,293.974 614,267.5C 634.09,222.839 637.757,176.839 625,129.5C 606.817,75.4721 569.984,41.6388 514.5,28C 487.932,22.5841 461.265,22.0841 434.5,26.5C 434.5,25.5 434.5,24.5 434.5,23.5C 461.158,19.0011 487.824,15.6678 514.5,13.5 Z M 709.5,124.5 C 711.027,124.427 712.027,125.094 712.5,126.5C 710.973,126.573 709.973,125.906 709.5,124.5 Z"/></g>
<g><path style="opacity:0.98" fill="#fefffe" d="M 430.5,29.5 C 454.85,27.9382 478.85,30.1049 502.5,36C 563.553,56.0816 591.387,98.2483 586,162.5C 585.729,169.114 583.563,174.947 579.5,180C 576.963,181.838 574.129,182.671 571,182.5C 428.191,156.409 300.691,188.909 188.5,280C 97.7577,361.251 49.591,463.085 44,585.5C 42.5367,631.941 46.3701,677.941 55.5,723.5C 55.4513,727.238 53.7846,728.572 50.5,727.5C 29.4225,675.954 17.5892,622.287 15,566.5C 9.37997,406.689 62.88,270.856 175.5,159C 222.949,114.756 276.616,79.7556 336.5,54C 366.807,41.4244 398.141,33.2577 430.5,29.5 Z"/></g>
</svg>
