<?xml version="1.0" encoding="UTF-8"?>
<!-- Generator: visioncortex VTracer 0.6.3 -->
<svg version="1.1" xmlns="http://www.w3.org/2000/svg" width="1213" height="1280">
<path d="M0 0 C2.11 1.34 2.11 1.34 3.81 2.62 C4.8 3.29 5.79 3.95 6.81 4.62 C6.81 5.29 6.81 5.95 6.81 6.62 C7.8 6.96 8.79 7.29 9.81 7.62 C9.81 8.29 9.81 8.95 9.81 9.62 C10.47 9.62 11.13 9.62 11.81 9.62 C13.03 11.2 13.03 11.2 14.31 13.31 C14.74 14 15.16 14.68 15.59 15.39 C20.35 24.13 21.88 34.3 19.62 44 C16.04 55.58 8.82 63.57 -1.46 69.85 C-3.19 70.62 -3.19 70.62 -6.19 70.62 C-6.19 71.28 -6.19 71.94 -6.19 72.62 C-7.62 73.47 -9.06 74.3 -10.5 75.12 C-11.3 75.59 -12.1 76.05 -12.93 76.53 C-15.19 77.62 -15.19 77.62 -18.19 77.62 C-18.19 78.28 -18.19 78.94 -18.19 79.62 C-21.09 81.67 -22.59 82.62 -26.19 82.62 C-26.19 83.28 -26.19 83.94 -26.19 84.62 C-26.95 85.03 -27.71 85.44 -28.49 85.87 C-29.48 86.41 -30.48 86.94 -31.5 87.5 C-32.98 88.3 -32.98 88.3 -34.49 89.12 C-37.28 90.63 -37.28 90.63 -40.19 92.62 C-41.18 92.62 -42.17 92.62 -43.19 92.62 C-43.19 93.28 -43.19 93.94 -43.19 94.62 C-44.19 95.15 -44.19 95.15 -45.21 95.69 C-51.12 98.86 -56.79 102.25 -62.42 105.89 C-66.1 108.2 -69.91 110.23 -73.74 112.27 C-75.82 113.42 -77.75 114.63 -79.69 116 C-82.19 117.62 -82.19 117.62 -85.19 117.62 C-85.19 118.28 -85.19 118.94 -85.19 119.62 C-88.09 121.67 -89.59 122.62 -93.19 122.62 C-93.19 123.28 -93.19 123.94 -93.19 124.62 C-94.62 125.47 -96.06 126.3 -97.5 127.12 C-98.3 127.59 -99.1 128.05 -99.93 128.53 C-102.19 129.62 -102.19 129.62 -105.19 129.62 C-105.19 130.28 -105.19 130.94 -105.19 131.62 C-107.45 132.97 -109.73 134.3 -112 135.62 C-112.64 136.01 -113.29 136.39 -113.95 136.78 C-118.85 139.62 -118.85 139.62 -122.19 139.62 C-122.19 140.28 -122.19 140.94 -122.19 141.62 C-125.09 143.67 -126.59 144.62 -130.19 144.62 C-130.19 145.28 -130.19 145.94 -130.19 146.62 C-132.45 147.97 -134.73 149.3 -137 150.62 C-137.64 151.01 -138.29 151.39 -138.95 151.78 C-143.85 154.62 -143.85 154.62 -147.19 154.62 C-147.19 155.28 -147.19 155.94 -147.19 156.62 C-147.85 156.98 -148.52 157.33 -149.21 157.69 C-155.3 160.96 -161.13 164.45 -166.88 168.3 C-169.19 169.62 -169.19 169.62 -172.19 169.62 C-172.19 170.28 -172.19 170.94 -172.19 171.62 C-173.62 172.47 -175.06 173.3 -176.5 174.12 C-177.3 174.59 -178.1 175.05 -178.93 175.53 C-181.19 176.62 -181.19 176.62 -184.19 176.62 C-184.19 177.28 -184.19 177.94 -184.19 178.62 C-185.84 178.96 -187.49 179.28 -189.19 179.62 C-189.19 180.28 -189.19 180.94 -189.19 181.62 C-192.09 183.67 -193.59 184.62 -197.19 184.62 C-197.19 185.28 -197.19 185.94 -197.19 186.62 C-198.62 187.47 -200.06 188.3 -201.5 189.12 C-202.3 189.59 -203.1 190.05 -203.93 190.53 C-206.19 191.62 -206.19 191.62 -209.19 191.62 C-209.19 192.28 -209.19 192.94 -209.19 193.62 C-210.84 193.96 -212.49 194.28 -214.19 194.62 C-214.19 195.28 -214.19 195.94 -214.19 196.62 C-215.62 197.47 -217.06 198.3 -218.5 199.12 C-219.3 199.59 -220.1 200.05 -220.93 200.53 C-223.19 201.62 -223.19 201.62 -226.19 201.62 C-226.19 202.28 -226.19 202.94 -226.19 203.62 C-229.09 205.67 -230.59 206.62 -234.19 206.62 C-234.19 207.28 -234.19 207.94 -234.19 208.62 C-236.45 209.97 -238.73 211.3 -241 212.62 C-241.64 213.01 -242.29 213.39 -242.95 213.78 C-247.85 216.62 -247.85 216.62 -251.19 216.62 C-251.19 217.28 -251.19 217.94 -251.19 218.62 C-254.09 220.67 -255.59 221.62 -259.19 221.62 C-259.19 222.28 -259.19 222.94 -259.19 223.62 C-259.95 224.03 -260.71 224.44 -261.49 224.87 C-262.48 225.41 -263.48 225.94 -264.5 226.5 C-265.49 227.03 -266.47 227.57 -267.49 228.12 C-270.28 229.63 -270.28 229.63 -273.19 231.62 C-274.18 231.62 -275.17 231.62 -276.19 231.62 C-276.19 232.28 -276.19 232.94 -276.19 233.62 C-277 234.01 -277.8 234.4 -278.64 234.8 C-280.24 235.58 -280.24 235.58 -281.88 236.38 C-282.93 236.89 -283.99 237.4 -285.07 237.92 C-288.1 239.58 -290.56 241.42 -293.19 243.62 C-297.69 246.62 -297.69 246.62 -301.19 246.62 C-301.19 247.28 -301.19 247.94 -301.19 248.62 C-302.03 249.03 -302.87 249.44 -303.74 249.87 C-304.84 250.41 -305.93 250.94 -307.06 251.5 C-308.15 252.03 -309.24 252.57 -310.37 253.12 C-313.23 254.47 -313.23 254.47 -315.19 256.62 C-316.18 256.62 -317.17 256.62 -318.19 256.62 C-318.19 257.29 -318.19 257.94 -318.19 258.62 C-318.91 259.01 -319.64 259.4 -320.38 259.8 C-326.68 263.15 -326.68 263.15 -332.69 267 C-335.19 268.62 -335.19 268.62 -338.19 268.62 C-338.19 269.29 -338.19 269.94 -338.19 270.62 C-339.84 270.95 -341.49 271.29 -343.19 271.62 C-343.19 272.29 -343.19 272.94 -343.19 273.62 C-344.15 274.06 -344.15 274.06 -345.12 274.5 C-347.34 275.45 -347.34 275.45 -348.19 277.62 C-346.86 278 -346.86 278 -345.5 278.38 C-342.19 279.62 -342.19 279.62 -339.84 281.52 C-337.13 283.67 -334.56 285.04 -331.44 286.5 C-326.74 288.78 -322.47 291.29 -318.22 294.33 C-315.97 295.77 -313.69 296.7 -311.19 297.62 C-311.19 298.29 -311.19 298.94 -311.19 299.62 C-310.61 299.75 -310.03 299.87 -309.44 300 C-307.16 300.63 -305.26 301.51 -303.19 302.62 C-303.19 303.29 -303.19 303.94 -303.19 304.62 C-302.45 304.74 -301.72 304.85 -300.96 304.96 C-298.07 305.65 -296.25 306.6 -293.75 308.19 C-289.71 310.7 -285.64 313.1 -281.5 315.44 C-275.63 318.77 -269.83 322.21 -264.07 325.74 C-261.46 327.33 -259.1 328.65 -256.19 329.62 C-256.19 330.29 -256.19 330.94 -256.19 331.62 C-255.61 331.75 -255.03 331.87 -254.44 332 C-252.12 332.65 -250.31 333.52 -248.21 334.7 C-247.46 335.12 -246.71 335.53 -245.94 335.96 C-245.16 336.41 -244.37 336.85 -243.56 337.31 C-242.75 337.77 -241.94 338.22 -241.11 338.69 C-236.19 341.46 -231.33 344.3 -226.51 347.24 C-222.15 349.84 -217.66 352.23 -213.19 354.62 C-213.19 355.29 -213.19 355.94 -213.19 356.62 C-212.67 356.71 -212.16 356.79 -211.63 356.88 C-208.17 357.94 -205.22 359.79 -202.12 361.62 C-197.33 364.49 -197.33 364.49 -192.19 366.62 C-192.19 367.29 -192.19 367.94 -192.19 368.62 C-190.54 368.95 -188.89 369.29 -187.19 369.62 C-187.19 370.29 -187.19 370.94 -187.19 371.62 C-186.42 371.75 -186.42 371.75 -185.64 371.88 C-182.15 372.94 -179.14 374.75 -176 376.56 C-175.3 376.96 -174.61 377.36 -173.89 377.76 C-164.06 383.38 -154.3 389.12 -144.62 395 C-140.58 397.44 -136.45 399.57 -132.19 401.62 C-132.19 402.29 -132.19 402.94 -132.19 403.62 C-131.1 403.79 -131.1 403.79 -129.98 403.96 C-127.01 404.67 -125.07 405.69 -122.5 407.31 C-121.63 407.85 -120.76 408.39 -119.86 408.95 C-118.98 409.5 -118.1 410.06 -117.19 410.62 C-115.52 411.63 -113.86 412.63 -112.19 413.62 C-109.69 415.12 -107.2 416.61 -104.72 418.12 C-100.53 420.67 -96.32 423.12 -92 425.44 C-86.63 428.33 -81.42 431.45 -76.23 434.64 C-73.56 436.26 -71.16 437.64 -68.19 438.62 C-68.19 439.29 -68.19 439.94 -68.19 440.62 C-66.54 440.95 -64.89 441.29 -63.19 441.62 C-63.19 442.29 -63.19 442.94 -63.19 443.62 C-62.3 443.82 -62.3 443.82 -61.4 444.02 C-57.94 444.97 -54.97 446.85 -51.88 448.62 C-51.18 449.02 -50.48 449.42 -49.76 449.82 C-44.11 453.05 -38.52 456.39 -32.97 459.79 C-30.39 461.37 -28.07 462.66 -25.19 463.62 C-25.19 464.29 -25.19 464.94 -25.19 465.62 C-24.67 465.72 -24.15 465.81 -23.61 465.9 C-20.31 466.89 -17.43 468.53 -14.44 470.19 C-13.53 470.68 -13.53 470.68 -12.61 471.19 C-11.14 471.99 -9.66 472.81 -8.19 473.62 C-8.19 474.29 -8.19 474.94 -8.19 475.62 C-7.45 475.74 -6.72 475.85 -5.96 475.96 C-3.07 476.65 -1.25 477.6 1.25 479.19 C5.29 481.7 9.36 484.1 13.5 486.44 C19.37 489.77 25.17 493.21 30.93 496.74 C33.54 498.33 35.9 499.65 38.81 500.62 C38.81 501.29 38.81 501.94 38.81 502.62 C40.46 502.95 42.11 503.29 43.81 503.62 C43.81 504.29 43.81 504.94 43.81 505.62 C44.38 505.75 44.96 505.87 45.55 506 C47.91 506.65 49.88 507.56 52.06 508.69 C52.77 509.05 53.48 509.41 54.2 509.79 C54.73 510.06 55.27 510.34 55.81 510.62 C55.81 511.28 55.81 511.95 55.81 512.62 C56.55 512.73 57.29 512.84 58.06 512.96 C60.95 513.66 62.5 514.57 64.88 516.31 C70.22 520.04 75.94 522.82 81.81 525.62 C81.81 526.28 81.81 526.95 81.81 527.62 C82.38 527.74 82.95 527.85 83.53 527.97 C86.06 528.7 88.04 529.75 90.31 531.06 C93.11 532.67 95.91 534.21 98.81 535.62 C98.81 536.28 98.81 536.95 98.81 537.62 C99.33 537.72 99.85 537.81 100.39 537.9 C103.69 538.89 106.57 540.53 109.56 542.19 C110.16 542.52 110.77 542.85 111.39 543.19 C112.86 543.99 114.34 544.81 115.81 545.62 C115.81 546.28 115.81 546.95 115.81 547.62 C116.93 547.81 116.93 547.81 118.06 548 C120.61 548.58 122.54 549.36 124.81 550.62 C124.81 551.28 124.81 551.95 124.81 552.62 C125.38 552.74 125.95 552.85 126.54 552.96 C129.86 553.93 132.56 555.76 135.5 557.57 C139.38 559.34 142.81 558.81 146.81 557.62 C146.81 556.97 146.81 556.3 146.81 555.62 C160.01 548.03 160.01 548.03 166.12 544.75 C178.09 538.27 189.96 531.33 201.39 523.96 C203.81 522.62 203.81 522.62 206.81 522.62 C206.81 521.97 206.81 521.3 206.81 520.62 C212.44 517.62 212.44 517.62 215.81 517.62 C215.81 516.97 215.81 516.3 215.81 515.62 C216.43 515.3 217.05 514.97 217.69 514.63 C223.36 511.58 228.93 508.39 234.44 505.06 C243.2 499.77 243.2 499.77 247.06 497.56 C247.73 497.18 248.39 496.8 249.08 496.4 C250.81 495.62 250.81 495.62 253.81 495.62 C253.81 494.96 253.81 494.31 253.81 493.62 C256.08 492.28 258.35 490.95 260.62 489.62 C261.27 489.24 261.91 488.86 262.57 488.47 C267.47 485.62 267.47 485.62 270.81 485.62 C270.81 484.96 270.81 484.31 270.81 483.62 C284.01 476.03 284.01 476.03 290.12 472.75 C299.63 467.6 308.91 462.02 318.12 456.38 C321.62 454.26 325.2 452.42 328.88 450.62 C333.34 448.44 337.39 446.02 341.47 443.19 C345.15 440.73 348.99 438.56 352.83 436.35 C355.57 434.76 358.29 433.14 361 431.5 C364.24 429.56 367.48 427.63 370.75 425.75 C371.46 425.34 372.17 424.93 372.9 424.51 C374.81 423.62 374.81 423.62 377.81 423.62 C377.81 422.96 377.81 422.31 377.81 421.62 C378.6 421.21 379.39 420.8 380.2 420.38 C387.2 416.66 393.98 412.72 400.7 408.52 C404.35 406.3 408.08 404.28 411.84 402.27 C418.88 398.38 425.8 394.2 432.57 389.86 C434.81 388.62 434.81 388.62 437.81 388.62 C437.81 387.96 437.81 387.31 437.81 386.62 C438.94 386.08 438.94 386.08 440.09 385.52 C441.11 385.02 442.13 384.52 443.19 384 C444.68 383.27 444.68 383.27 446.21 382.52 C449.91 380.63 453.44 378.49 456.98 376.34 C461.78 373.43 466.62 370.58 471.44 367.72 C473.18 366.69 474.91 365.66 476.65 364.63 C478.92 363.29 481.19 361.95 483.46 360.61 C485.73 359.27 487.98 357.92 490.23 356.56 C491.3 355.92 492.37 355.28 493.48 354.62 C494.43 354.04 495.39 353.47 496.37 352.87 C498.81 351.62 498.81 351.62 501.81 351.62 C501.81 350.96 501.81 350.31 501.81 349.62 C502.97 349.06 502.97 349.06 504.16 348.49 C505.2 347.98 506.24 347.46 507.31 346.94 C508.33 346.44 509.35 345.94 510.41 345.43 C513.61 343.73 516.65 341.89 519.71 339.95 C523.3 337.69 526.96 335.57 530.62 333.44 C532.11 332.57 533.6 331.7 535.08 330.83 C536.05 330.27 536.05 330.27 537.04 329.69 C538.66 328.72 540.24 327.67 541.81 326.62 C542.8 326.62 543.79 326.62 544.81 326.62 C544.81 325.96 544.81 325.31 544.81 324.62 C546.01 324.04 546.01 324.04 547.23 323.45 C554 320.2 554 320.2 560.38 316.25 C562.81 314.62 562.81 314.62 565.81 314.62 C565.81 313.96 565.81 313.31 565.81 312.62 C579.02 305.03 579.02 305.03 585.25 301.69 C588.46 299.96 591.61 298.16 594.72 296.25 C595.4 295.84 596.08 295.43 596.77 295 C598.11 294.18 599.45 293.35 600.78 292.52 C605.48 289.62 605.48 289.62 608.81 289.62 C608.81 288.96 608.81 288.31 608.81 287.62 C609.77 287.08 610.72 286.54 611.7 285.98 C612.97 285.26 614.23 284.54 615.5 283.81 C616.13 283.46 616.75 283.1 617.4 282.73 C620.89 280.74 624.37 278.71 627.81 276.62 C621.91 272.29 615.94 268.51 609.46 265.09 C606.98 263.72 604.66 262.23 602.31 260.62 C598.31 257.89 594.17 255.57 589.88 253.31 C585.45 250.87 581.14 248.24 576.81 245.62 C575.24 244.68 573.67 243.74 572.09 242.8 C562.97 237.34 553.87 231.85 544.81 226.28 C541.12 224.01 537.4 221.81 533.63 219.67 C530.06 217.61 526.57 215.42 523.06 213.25 C517.27 209.69 511.45 206.28 505.45 203.08 C500.12 200.14 494.99 196.84 489.81 193.62 C487.94 192.47 486.07 191.33 484.19 190.19 C483.41 189.71 482.64 189.24 481.84 188.75 C479.72 187.49 479.72 187.49 476.81 186.62 C476.81 185.97 476.81 185.31 476.81 184.62 C475.95 184.44 475.95 184.44 475.06 184.25 C472.79 183.62 470.89 182.74 468.81 181.62 C468.81 180.97 468.81 180.31 468.81 179.62 C468.28 179.54 467.74 179.45 467.19 179.36 C464.01 178.38 461.56 176.73 458.75 174.94 C453.74 171.78 448.65 168.86 443.43 166.05 C439.14 163.71 434.99 161.16 430.81 158.62 C429.17 157.65 427.52 156.67 425.88 155.69 C422.33 153.57 418.85 151.37 415.38 149.12 C410.84 146.21 406.18 143.63 401.43 141.09 C398.96 139.71 396.64 138.22 394.31 136.62 C390.21 133.82 385.95 131.47 381.57 129.12 C375.66 125.91 369.94 122.42 364.38 118.62 C361.25 116.51 358.07 114.64 354.74 112.86 C348.86 109.68 343.11 106.3 337.38 102.88 C335.46 101.73 333.55 100.59 331.63 99.45 C330.38 98.71 330.38 98.71 329.11 97.95 C327.04 96.76 324.96 95.67 322.81 94.62 C322.81 93.97 322.81 93.31 322.81 92.62 C322.28 92.54 321.75 92.45 321.2 92.36 C317.95 91.36 315.43 89.64 312.56 87.81 C307.76 84.78 302.95 82.04 297.81 79.62 C297.81 78.97 297.81 78.31 297.81 77.62 C297.28 77.54 296.75 77.45 296.21 77.36 C292.94 76.36 290.39 74.64 287.5 72.81 C283.98 70.6 280.48 68.4 276.81 66.44 C273.61 64.5 271.34 62.37 268.81 59.62 C268.33 59.18 267.84 58.73 267.34 58.27 C260.39 50.77 259.54 41.05 259.66 31.33 C260.19 21.85 264.21 13.39 270.81 6.62 C273.62 5.25 273.62 5.25 275.81 4.62 C275.81 3.96 275.81 3.3 275.81 2.62 C279.23 0.09 281.57 -0.74 285.81 -0.38 C285.81 -1.04 285.81 -1.7 285.81 -2.38 C293.4 -2.38 300.99 -2.38 308.81 -2.38 C308.81 -1.71 308.81 -1.05 308.81 -0.38 C310.46 -0.38 312.11 -0.38 313.81 -0.38 C313.81 0.29 313.81 0.95 313.81 1.62 C314.54 1.73 315.27 1.83 316.02 1.94 C319.08 2.69 320.89 3.8 323.44 5.62 C325.99 7.44 327.82 8.63 330.81 9.62 C330.81 10.29 330.81 10.95 330.81 11.62 C331.35 11.71 331.88 11.8 332.43 11.89 C335.62 12.87 338.07 14.52 340.88 16.31 C345.94 19.51 351.08 22.48 356.38 25.3 C361.5 28.09 361.5 28.09 363.81 29.62 C363.81 30.28 363.81 30.95 363.81 31.62 C364.54 31.74 365.27 31.85 366.02 31.96 C368.96 32.66 370.89 33.65 373.44 35.25 C374.31 35.79 375.18 36.33 376.07 36.88 C379.62 39.14 383.16 41.41 386.68 43.72 C390.34 45.95 394.09 47.97 397.86 50.01 C402.61 52.61 407.28 55.36 411.94 58.12 C412.86 58.67 413.79 59.21 414.74 59.77 C419.88 62.81 424.9 65.98 429.85 69.33 C432.26 70.92 434.75 72.3 437.31 73.62 C440.78 75.47 444.07 77.4 447.31 79.62 C451.41 82.43 455.68 84.78 460.05 87.12 C464.39 89.48 468.59 92.06 472.81 94.62 C474.46 95.6 476.1 96.58 477.75 97.56 C482.25 100.26 486.67 103.07 491.07 105.91 C493.67 107.54 496.3 109.07 498.97 110.58 C502.16 112.39 505.33 114.26 508.5 116.12 C509.59 116.77 509.59 116.77 510.71 117.42 C516.43 120.79 522.12 124.2 527.81 127.62 C535.29 132.12 542.79 136.57 550.31 140.98 C555.63 144.1 560.94 147.24 566.25 150.38 C567.15 150.91 568.05 151.44 568.98 151.98 C577.76 157.17 586.51 162.38 595.07 167.91 C597.64 169.52 600.26 171.02 602.9 172.52 C606.5 174.6 610.02 176.81 613.56 179 C619.44 182.62 625.35 186.06 631.44 189.3 C634.59 191.06 637.53 193.09 640.5 195.12 C643.81 197.27 647.26 199.1 650.75 200.94 C655.18 203.38 659.48 206.01 663.81 208.62 C665.38 209.57 666.96 210.51 668.53 211.45 C677.65 216.91 686.76 222.4 695.81 227.97 C699.48 230.22 703.17 232.42 706.91 234.54 C710.94 236.84 714.94 239.2 718.94 241.56 C720.26 242.33 720.26 242.33 721.61 243.12 C728.01 246.91 732.77 251.11 737.44 256.94 C738.29 257.98 738.29 257.98 739.16 259.05 C743.16 265.3 744.26 271.01 744.2 278.26 C744.2 279.09 744.21 279.93 744.21 280.79 C744.22 283.59 744.22 286.38 744.21 289.18 C744.21 291.2 744.22 293.23 744.23 295.26 C744.24 300.83 744.24 306.39 744.23 311.96 C744.23 317.96 744.25 323.97 744.26 329.97 C744.28 341.74 744.28 353.5 744.28 365.26 C744.28 374.83 744.28 384.39 744.29 393.95 C744.29 395.33 744.29 396.7 744.29 398.07 C744.3 398.76 744.3 399.44 744.3 400.14 C744.3 401.17 744.3 401.17 744.3 402.21 C744.3 402.9 744.3 403.58 744.3 404.29 C744.31 423.54 744.32 442.8 744.32 462.05 C744.32 462.78 744.32 463.51 744.32 464.25 C744.32 467.93 744.32 471.61 744.31 475.29 C744.31 476.02 744.31 476.75 744.31 477.5 C744.31 478.98 744.31 480.46 744.31 481.94 C744.31 504.92 744.32 527.9 744.35 550.88 C744.39 576.71 744.41 602.53 744.4 628.36 C744.4 631.12 744.4 633.87 744.4 636.63 C744.4 637.31 744.4 637.99 744.4 638.69 C744.4 648.92 744.41 659.15 744.43 669.38 C744.45 681.02 744.46 692.66 744.44 704.3 C744.43 710.24 744.43 716.18 744.45 722.11 C744.47 727.55 744.46 732.99 744.44 738.43 C744.44 740.4 744.44 742.36 744.45 744.33 C744.55 759.33 743.16 771.27 732.15 782.53 C724.49 789.4 716.91 792.03 706.69 792.06 C705.85 792.07 705.02 792.07 704.16 792.07 C696.82 791.94 691.26 790.23 684.81 786.62 C684.81 785.97 684.81 785.3 684.81 784.62 C684.26 784.4 683.7 784.17 683.12 783.94 C676.03 779.91 671.51 772.58 669.19 764.92 C667.18 757.19 667.39 749.43 667.41 741.51 C667.41 739.78 667.4 738.06 667.39 736.33 C667.38 731.61 667.38 726.9 667.38 722.18 C667.38 717.08 667.36 711.99 667.35 706.89 C667.33 698.07 667.31 689.24 667.31 680.42 C667.3 667.66 667.28 654.91 667.25 642.15 C667.21 621.46 667.18 600.76 667.16 580.06 C667.14 559.96 667.11 539.86 667.07 519.76 C667.07 517.9 667.07 517.9 667.07 516 C667.06 509.78 667.05 503.56 667.03 497.34 C666.94 445.77 666.87 394.2 666.81 342.62 C666.05 343.12 665.29 343.62 664.5 344.12 C661.81 345.62 661.81 345.62 658.81 345.62 C658.81 346.29 658.81 346.94 658.81 347.62 C658.05 347.99 657.29 348.35 656.5 348.73 C650.7 351.55 645.25 354.52 639.94 358.2 C637.16 360.06 634.26 361.62 631.32 363.21 C628.32 364.9 625.42 366.73 622.5 368.56 C618.37 371.13 614.26 373.46 609.88 375.56 C604.63 378.1 599.88 381.1 595.03 384.3 C590.38 387.35 585.56 389.82 580.55 392.23 C577.19 393.94 574.17 395.98 571.08 398.13 C568.6 399.76 566.06 401.16 563.44 402.56 C559.58 404.62 555.87 406.81 552.19 409.19 C539.1 417.62 539.1 417.62 534.81 417.62 C534.81 418.29 534.81 418.94 534.81 419.62 C533.67 420.17 532.54 420.72 531.36 421.29 C526.74 423.6 522.38 426.26 518 429 C512.28 432.54 506.53 435.94 500.59 439.1 C497.07 441.04 493.63 443.11 490.19 445.19 C481.43 450.47 481.43 450.47 477.56 452.69 C476.9 453.07 476.23 453.45 475.55 453.85 C473.81 454.62 473.81 454.62 470.81 454.62 C470.81 455.29 470.81 455.94 470.81 456.62 C457.61 464.22 457.61 464.22 451.38 467.56 C448.16 469.29 445.01 471.09 441.9 473 C441.23 473.41 440.55 473.82 439.85 474.25 C438.51 475.07 437.18 475.9 435.85 476.73 C431.14 479.62 431.14 479.62 427.81 479.62 C427.81 480.29 427.81 480.94 427.81 481.62 C426.65 482.19 426.65 482.19 425.47 482.76 C420.08 485.41 414.83 488.09 409.79 491.36 C407.59 492.77 405.36 494.1 403.12 495.44 C400.3 497.12 397.49 498.83 394.71 500.57 C388.42 504.52 382.1 508.08 375.41 511.3 C373.22 512.42 371.26 513.59 369.25 515 C366.81 516.62 366.81 516.62 363.81 516.62 C363.81 517.28 363.81 517.95 363.81 518.62 C361.55 519.97 359.27 521.3 357 522.62 C356.04 523.2 356.04 523.2 355.05 523.78 C350.15 526.62 350.15 526.62 346.81 526.62 C346.81 527.28 346.81 527.95 346.81 528.62 C333.61 536.22 333.61 536.22 327.38 539.56 C324.16 541.29 321.01 543.09 317.9 545 C317.23 545.41 316.55 545.82 315.85 546.25 C314.51 547.07 313.18 547.9 311.85 548.73 C307.14 551.62 307.14 551.62 303.81 551.62 C303.81 552.28 303.81 552.95 303.81 553.62 C302.65 554.19 302.65 554.19 301.47 554.76 C300.43 555.27 299.39 555.79 298.31 556.31 C297.29 556.81 296.27 557.31 295.22 557.82 C291.99 559.53 288.94 561.38 285.87 563.33 C282.54 565.43 279.14 567.39 275.75 569.38 C270.08 572.69 264.44 576.04 258.81 579.44 C254.75 581.88 250.68 584.32 246.56 586.69 C245.9 587.07 245.23 587.45 244.55 587.85 C242.81 588.62 242.81 588.62 239.81 588.62 C239.81 589.28 239.81 589.95 239.81 590.62 C226.61 598.22 226.61 598.22 220.5 601.5 C215.8 604.05 211.17 606.72 206.56 609.44 C205.84 609.86 205.12 610.28 204.38 610.72 C200.73 612.87 197.1 615.05 193.49 617.27 C192.81 617.69 192.13 618.1 191.42 618.53 C190.13 619.33 188.83 620.13 187.55 620.93 C183.15 623.62 183.15 623.62 179.81 623.62 C179.81 624.28 179.81 624.95 179.81 625.62 C179.15 625.62 178.49 625.62 177.81 625.62 C177.81 806.47 177.81 987.31 177.81 1173.62 C179.46 1173.3 181.11 1172.96 182.81 1172.62 C182.81 1171.96 182.81 1171.31 182.81 1170.62 C184.42 1169.75 186.02 1168.88 187.62 1168 C188.63 1167.45 189.64 1166.9 190.68 1166.33 C192.63 1165.27 194.58 1164.22 196.54 1163.17 C201.55 1160.48 206.43 1157.65 211.25 1154.62 C216.36 1151.44 221.56 1148.68 226.98 1146.05 C230.52 1144.27 233.88 1142.26 237.25 1140.19 C240.08 1138.46 242.94 1136.79 245.81 1135.12 C249.56 1132.95 253.29 1130.74 257 1128.5 C260.24 1126.56 263.48 1124.63 266.75 1122.75 C267.46 1122.34 268.17 1121.93 268.9 1121.51 C270.81 1120.62 270.81 1120.62 273.81 1120.62 C273.81 1119.96 273.81 1119.31 273.81 1118.62 C274.82 1118.15 275.83 1117.68 276.88 1117.19 C281.13 1115.07 285.18 1112.65 289.25 1110.19 C298.32 1104.71 298.32 1104.71 302.06 1102.56 C302.73 1102.18 303.39 1101.8 304.08 1101.4 C305.81 1100.62 305.81 1100.62 308.81 1100.62 C308.81 1099.96 308.81 1099.31 308.81 1098.62 C311.79 1097.39 314.67 1096.32 317.81 1095.62 C317.81 1094.96 317.81 1094.31 317.81 1093.62 C318.54 1093.27 319.27 1092.92 320.02 1092.56 C326.67 1089.29 333.08 1085.79 339.41 1081.95 C341.81 1080.62 341.81 1080.62 343.81 1080.62 C343.81 1079.96 343.81 1079.31 343.81 1078.62 C345.13 1078.62 346.45 1078.62 347.81 1078.62 C347.81 1077.96 347.81 1077.31 347.81 1076.62 C349.46 1076.3 351.11 1075.96 352.81 1075.62 C352.81 1074.96 352.81 1074.31 352.81 1073.62 C353.89 1073.11 353.89 1073.11 354.98 1072.59 C361.94 1069.21 368.43 1065.47 374.9 1061.26 C377.65 1059.72 379.71 1059.02 382.81 1058.62 C382.81 1057.96 382.81 1057.31 382.81 1056.62 C383.63 1056.19 384.46 1055.75 385.3 1055.3 C391.45 1052.03 397.5 1048.66 403.46 1045.05 C405.87 1043.59 408.3 1042.15 410.75 1040.75 C411.46 1040.34 412.17 1039.93 412.9 1039.51 C414.81 1038.62 414.81 1038.62 417.81 1038.62 C417.81 1037.96 417.81 1037.31 417.81 1036.62 C419.01 1036.04 419.01 1036.04 420.23 1035.45 C425.67 1032.78 430.79 1030.04 435.81 1026.62 C437.45 1025.72 439.1 1024.82 440.75 1023.94 C445.34 1021.47 449.8 1018.84 454.25 1016.12 C458.81 1013.35 463.38 1010.77 468.19 1008.44 C472.51 1006.34 476.4 1003.99 480.35 1001.26 C487.6 996.45 495.31 992.31 503.12 988.5 C507.54 986.34 511.52 983.91 515.55 981.12 C519.8 978.31 524.3 975.98 528.81 973.62 C529.39 973.32 529.96 973.01 530.56 972.7 C532.39 971.72 534.22 970.77 536.06 969.81 C537.18 969.23 538.3 968.64 539.45 968.04 C548.11 964.39 558.96 964.52 567.81 967.62 C579.4 973.2 586.35 981.05 591.12 992.88 C593.6 1006.37 590.77 1016.82 583.18 1028.04 C582.73 1028.57 582.28 1029.09 581.81 1029.62 C581.15 1029.62 580.49 1029.62 579.81 1029.62 C579.48 1030.62 579.15 1031.61 578.81 1032.62 C574.48 1035.62 574.48 1035.62 571.81 1035.62 C571.81 1036.29 571.81 1036.94 571.81 1037.62 C571.12 1037.95 570.43 1038.28 569.71 1038.62 C562.82 1041.97 556.28 1045.64 549.8 1049.73 C545.13 1052.62 545.13 1052.62 541.81 1052.62 C541.81 1053.29 541.81 1053.94 541.81 1054.62 C536.19 1057.62 536.19 1057.62 532.81 1057.62 C532.81 1058.29 532.81 1058.94 532.81 1059.62 C531.8 1060.1 530.79 1060.57 529.75 1061.06 C524.64 1063.59 519.83 1066.6 515.01 1069.63 C510.14 1072.62 510.14 1072.62 506.81 1072.62 C506.81 1073.29 506.81 1073.94 506.81 1074.62 C501.19 1077.62 501.19 1077.62 497.81 1077.62 C497.81 1078.29 497.81 1078.94 497.81 1079.62 C497.07 1079.98 496.34 1080.33 495.57 1080.69 C489.29 1083.75 483.38 1087.08 477.53 1090.9 C473.95 1093.17 470.23 1095.16 466.49 1097.16 C463.9 1098.58 461.39 1100.08 458.88 1101.62 C454.22 1104.46 449.41 1106.85 444.52 1109.23 C442.29 1110.38 440.29 1111.56 438.25 1113 C435.81 1114.62 435.81 1114.62 432.81 1114.62 C432.81 1115.29 432.81 1115.94 432.81 1116.62 C431.99 1117.06 431.17 1117.5 430.32 1117.95 C424.21 1121.21 418.19 1124.55 412.27 1128.16 C408.75 1130.26 405.14 1132.18 401.53 1134.12 C398.93 1135.56 396.4 1137.07 393.88 1138.62 C390.25 1140.83 386.57 1142.77 382.75 1144.62 C378.33 1146.79 374.33 1149.19 370.29 1151.99 C364.98 1155.5 359.36 1158.51 353.81 1161.62 C352.43 1162.43 352.43 1162.43 351.02 1163.25 C350.23 1163.7 349.44 1164.16 348.62 1164.62 C347.95 1165.02 347.28 1165.41 346.58 1165.81 C344.81 1166.62 344.81 1166.62 341.81 1166.62 C341.81 1167.29 341.81 1167.94 341.81 1168.62 C334.11 1173.11 326.4 1177.4 318.38 1181.3 C316.21 1182.42 314.25 1183.6 312.25 1185 C309.81 1186.62 309.81 1186.62 306.81 1186.62 C306.81 1187.29 306.81 1187.94 306.81 1188.62 C306.04 1189 305.27 1189.38 304.47 1189.76 C298.36 1192.77 292.53 1195.94 286.81 1199.62 C280.35 1203.62 280.35 1203.62 276.81 1203.62 C276.81 1204.29 276.81 1204.94 276.81 1205.62 C275.16 1205.95 273.51 1206.29 271.81 1206.62 C271.81 1207.29 271.81 1207.94 271.81 1208.62 C271.12 1208.95 270.43 1209.28 269.71 1209.62 C262.82 1212.97 256.28 1216.64 249.8 1220.73 C245.13 1223.62 245.13 1223.62 241.81 1223.62 C241.81 1224.29 241.81 1224.94 241.81 1225.62 C234.11 1230.11 226.4 1234.4 218.38 1238.3 C216.21 1239.42 214.25 1240.6 212.25 1242 C209.81 1243.62 209.81 1243.62 206.81 1243.62 C206.81 1244.29 206.81 1244.94 206.81 1245.62 C201.19 1248.62 201.19 1248.62 197.81 1248.62 C197.81 1249.29 197.81 1249.94 197.81 1250.62 C197.02 1251.04 196.24 1251.45 195.43 1251.88 C188.44 1255.58 181.68 1259.5 174.97 1263.7 C171.05 1266.09 167.03 1268.26 162.96 1270.4 C160.69 1271.57 160.69 1271.57 158.81 1273.62 C157.49 1273.62 156.17 1273.62 154.81 1273.62 C154.81 1274.29 154.81 1274.94 154.81 1275.62 C147.76 1277.51 141.12 1278.13 133.81 1277.62 C133.48 1277.3 133.15 1276.96 132.81 1276.62 C131.76 1276.5 130.71 1276.38 129.62 1276.25 C125.8 1275.62 123.17 1274.51 119.81 1272.62 C119.81 1271.96 119.81 1271.31 119.81 1270.62 C118.93 1270.45 118.93 1270.45 118.03 1270.26 C115.74 1269.61 114.27 1268.77 112.31 1267.44 C108.88 1265.21 105.36 1263.36 101.69 1261.56 C97.49 1259.5 93.68 1257.26 89.81 1254.62 C88.17 1253.72 86.53 1252.82 84.88 1251.94 C80.28 1249.47 75.82 1246.84 71.38 1244.12 C65.89 1240.79 60.33 1237.78 54.55 1234.98 C50.56 1233.01 46.68 1230.83 42.81 1228.62 C42.81 1227.96 42.81 1227.31 42.81 1226.62 C41.16 1226.3 39.51 1225.96 37.81 1225.62 C37.81 1224.96 37.81 1224.31 37.81 1223.62 C37.11 1223.54 36.41 1223.45 35.69 1223.36 C32.18 1222.46 29.78 1220.91 26.75 1218.94 C22.61 1216.3 18.49 1213.88 14.06 1211.75 C4.19 1206.96 -5.14 1201.1 -14.5 1195.38 C-18.95 1192.68 -23.58 1190.42 -28.24 1188.12 C-32.7 1185.85 -36.93 1183.26 -41.19 1180.62 C-43 1179.52 -44.81 1178.41 -46.62 1177.31 C-47.43 1176.82 -48.23 1176.33 -49.06 1175.82 C-51.26 1174.5 -51.26 1174.5 -54.19 1173.62 C-54.19 1172.96 -54.19 1172.31 -54.19 1171.62 C-54.71 1171.54 -55.24 1171.45 -55.78 1171.36 C-59.03 1170.37 -61.79 1168.67 -64.69 1166.94 C-70.21 1163.71 -75.8 1160.74 -81.57 1157.95 C-84.2 1156.62 -86.74 1155.28 -89.19 1153.62 C-89.19 1152.96 -89.19 1152.31 -89.19 1151.62 C-90.51 1151.62 -91.83 1151.62 -93.19 1151.62 C-93.19 1150.96 -93.19 1150.31 -93.19 1149.62 C-93.92 1149.51 -94.66 1149.4 -95.42 1149.28 C-98.27 1148.6 -100.04 1147.7 -102.5 1146.12 C-107 1143.33 -111.56 1140.7 -116.19 1138.12 C-121.62 1135.1 -126.98 1131.99 -132.27 1128.72 C-134.3 1127.48 -134.3 1127.48 -137.19 1126.62 C-137.19 1125.96 -137.19 1125.31 -137.19 1124.62 C-137.71 1124.54 -138.23 1124.45 -138.77 1124.36 C-142.11 1123.34 -144.95 1121.58 -147.94 1119.81 C-152.94 1116.89 -157.96 1114.13 -163.19 1111.62 C-163.19 1110.96 -163.19 1110.31 -163.19 1109.62 C-163.88 1109.54 -164.58 1109.45 -165.3 1109.36 C-168.87 1108.45 -171.35 1106.82 -174.44 1104.81 C-179.53 1101.56 -184.59 1098.9 -190.19 1096.62 C-190.19 1095.96 -190.19 1095.31 -190.19 1094.62 C-190.71 1094.54 -191.24 1094.45 -191.78 1094.36 C-195.03 1093.37 -197.79 1091.67 -200.69 1089.94 C-207.06 1086.21 -213.54 1082.84 -220.19 1079.62 C-220.19 1078.96 -220.19 1078.31 -220.19 1077.62 C-220.93 1077.5 -221.67 1077.38 -222.44 1077.25 C-224.99 1076.67 -226.91 1075.89 -229.19 1074.62 C-229.19 1073.96 -229.19 1073.31 -229.19 1072.62 C-229.76 1072.51 -230.33 1072.39 -230.93 1072.27 C-233.34 1071.58 -235.2 1070.63 -237.38 1069.38 C-238.42 1068.78 -238.42 1068.78 -239.48 1068.17 C-240.37 1067.66 -241.27 1067.15 -242.19 1066.62 C-246.67 1064.12 -251.16 1061.64 -255.65 1059.16 C-262.77 1055.23 -269.88 1051.29 -276.82 1047.06 C-279.66 1045.34 -282.51 1043.67 -285.38 1042 C-286.89 1041.11 -286.89 1041.11 -288.44 1040.2 C-290 1039.31 -291.57 1038.44 -293.19 1037.64 C-301 1033.79 -306.74 1026.77 -309.69 1018.69 C-310.21 1017.01 -310.71 1015.32 -311.19 1013.62 C-311.52 1012.63 -311.85 1011.64 -312.19 1010.62 C-313.42 999.55 -310.46 989.83 -304.06 980.75 C-296.77 972.16 -286.93 967.68 -275.88 966.35 C-266.1 965.91 -257.35 969.53 -249.19 974.62 C-249.19 975.28 -249.19 975.95 -249.19 976.62 C-248.09 976.79 -248.09 976.79 -246.97 976.96 C-244.04 977.66 -242.16 978.65 -239.62 980.25 C-238.32 981.06 -238.32 981.06 -236.99 981.88 C-236.06 982.46 -235.14 983.03 -234.19 983.62 C-228.33 987.15 -222.47 990.53 -216.31 993.5 C-211.05 996.07 -206.27 999.09 -201.4 1002.31 C-196.86 1005.27 -192.2 1007.69 -187.32 1010.03 C-183.66 1011.89 -180.19 1013.98 -176.69 1016.12 C-170.35 1020.01 -163.91 1023.43 -157.19 1026.62 C-157.19 1027.29 -157.19 1027.94 -157.19 1028.62 C-156.45 1028.74 -155.72 1028.85 -154.96 1028.97 C-152.1 1029.65 -150.33 1030.55 -147.88 1032.12 C-143.25 1035 -138.56 1037.71 -133.81 1040.38 C-133.12 1040.76 -132.43 1041.15 -131.72 1041.55 C-128.58 1043.32 -125.44 1045.06 -122.19 1046.62 C-122.19 1047.29 -122.19 1047.94 -122.19 1048.62 C-121.44 1048.75 -120.7 1048.87 -119.94 1049 C-117.39 1049.58 -115.46 1050.36 -113.19 1051.62 C-113.19 1052.29 -113.19 1052.94 -113.19 1053.62 C-112.66 1053.71 -112.14 1053.8 -111.59 1053.89 C-108.34 1054.88 -105.59 1056.58 -102.69 1058.31 C-98.17 1060.95 -93.64 1063.45 -88.94 1065.75 C-84.39 1067.98 -80.06 1070.41 -75.75 1073.06 C-72.92 1074.79 -70.06 1076.46 -67.19 1078.12 C-63.49 1080.27 -59.83 1082.45 -56.19 1084.69 C-51.62 1087.45 -46.9 1089.82 -42.11 1092.17 C-38.06 1094.19 -34.12 1096.38 -30.19 1098.62 C-30.19 1099.29 -30.19 1099.94 -30.19 1100.62 C-29.63 1100.75 -29.07 1100.87 -28.5 1101 C-25.97 1101.68 -23.61 1102.62 -21.19 1103.62 C-21.19 1104.29 -21.19 1104.94 -21.19 1105.62 C-20.09 1105.79 -20.09 1105.79 -18.97 1105.96 C-16.04 1106.66 -14.16 1107.65 -11.62 1109.25 C-10.76 1109.79 -9.9 1110.32 -9 1110.88 C-8.07 1111.45 -7.15 1112.03 -6.19 1112.62 C0.37 1116.54 6.93 1120.32 13.81 1123.62 C13.81 1124.29 13.81 1124.94 13.81 1125.62 C14.91 1125.79 14.91 1125.79 16.03 1125.96 C18.96 1126.66 20.84 1127.65 23.38 1129.25 C24.68 1130.06 24.68 1130.06 26.01 1130.88 C26.94 1131.46 27.86 1132.03 28.81 1132.62 C34.77 1136.21 40.74 1139.64 47 1142.69 C51.44 1144.86 55.41 1147.3 59.46 1150.12 C63.17 1152.5 67.14 1154.33 71.1 1156.26 C74.19 1157.82 76.95 1159.68 79.81 1161.62 C82.41 1163.07 85.02 1164.48 87.64 1165.87 C90.47 1167.44 93.24 1169.07 96.01 1170.73 C96.91 1171.28 97.81 1171.82 98.74 1172.37 C99.42 1172.79 100.11 1173.2 100.81 1173.62 C100.97 1121.47 101.11 1069.31 101.19 1017.15 C101.19 1016.37 101.2 1015.6 101.2 1014.81 C101.22 998.04 101.25 981.27 101.27 964.5 C101.28 956.27 101.29 948.05 101.31 939.82 C101.31 939.01 101.31 938.19 101.31 937.34 C101.35 910.81 101.42 884.27 101.5 857.73 C101.58 830.47 101.64 803.2 101.66 775.94 C101.66 772.09 101.66 768.24 101.67 764.39 C101.67 763.25 101.67 763.25 101.67 762.09 C101.68 749.89 101.72 737.68 101.77 725.48 C101.83 713.21 101.85 700.95 101.83 688.68 C101.83 682.04 101.84 675.39 101.89 668.74 C101.93 662.66 101.93 656.58 101.9 650.5 C101.9 648.29 101.91 646.09 101.94 643.89 C102.61 632.88 102.61 632.88 98.84 623.04 C96.51 621.44 94.49 620.5 91.81 619.62 C90.8 619.03 89.78 618.44 88.74 617.83 C87.88 617.37 87.01 616.91 86.12 616.44 C85.21 615.95 84.29 615.46 83.34 614.95 C80.52 613.47 77.68 612.02 74.81 610.62 C74.81 609.97 74.81 609.3 74.81 608.62 C74.29 608.54 73.77 608.45 73.24 608.36 C69.88 607.34 67.01 605.58 64 603.81 C63.11 603.3 63.11 603.3 62.21 602.77 C61.01 602.08 59.82 601.38 58.62 600.68 C56.81 599.62 54.98 598.58 53.16 597.54 C50.44 595.98 47.74 594.39 45.06 592.75 C41.63 590.68 38.16 588.71 34.62 586.81 C29.25 583.92 24.05 580.8 18.85 577.61 C16.19 575.99 13.78 574.61 10.81 573.62 C10.81 572.97 10.81 572.3 10.81 571.62 C9.16 571.29 7.51 570.97 5.81 570.62 C5.81 569.97 5.81 569.3 5.81 568.62 C5.23 568.5 4.64 568.37 4.03 568.24 C0.46 567.25 -2.62 565.28 -5.81 563.44 C-6.53 563.03 -7.24 562.63 -7.97 562.21 C-12.72 559.5 -17.43 556.72 -22.1 553.89 C-24.49 552.44 -26.91 551.06 -29.35 549.69 C-31.63 548.37 -33.87 547 -36.12 545.62 C-40.38 543.05 -44.71 540.78 -49.19 538.62 C-49.19 537.97 -49.19 537.3 -49.19 536.62 C-49.71 536.54 -50.24 536.45 -50.78 536.36 C-54.05 535.36 -56.83 533.67 -59.75 531.94 C-61.02 531.2 -62.28 530.47 -63.55 529.73 C-64.17 529.37 -64.79 529.01 -65.43 528.63 C-67.76 527.29 -70.13 526.02 -72.5 524.75 C-81.66 519.79 -90.6 514.41 -99.51 509.02 C-100.19 508.6 -100.87 508.19 -101.58 507.76 C-102.87 506.98 -104.16 506.19 -105.45 505.41 C-108.02 503.85 -110.33 502.58 -113.19 501.62 C-113.19 500.96 -113.19 500.31 -113.19 499.62 C-114.3 499.46 -114.3 499.46 -115.43 499.29 C-118.33 498.59 -119.92 497.67 -122.31 495.94 C-126.53 493 -130.89 490.55 -135.42 488.13 C-138.12 486.66 -140.75 485.1 -143.38 483.5 C-147.55 480.96 -151.79 478.74 -156.19 476.62 C-156.19 475.96 -156.19 475.31 -156.19 474.62 C-156.71 474.53 -157.23 474.44 -157.77 474.35 C-161.06 473.36 -163.94 471.72 -166.94 470.06 C-167.84 469.57 -167.84 469.57 -168.76 469.06 C-170.24 468.26 -171.71 467.44 -173.19 466.62 C-173.19 465.96 -173.19 465.31 -173.19 464.62 C-173.92 464.51 -174.65 464.4 -175.41 464.29 C-178.3 463.6 -180.13 462.65 -182.62 461.06 C-186.66 458.55 -190.74 456.15 -194.88 453.81 C-200.75 450.48 -206.54 447.04 -212.3 443.51 C-214.92 441.92 -217.27 440.6 -220.19 439.62 C-220.19 438.96 -220.19 438.31 -220.19 437.62 C-220.71 437.53 -221.23 437.44 -221.77 437.35 C-225.06 436.36 -227.94 434.72 -230.94 433.06 C-231.84 432.57 -231.84 432.57 -232.76 432.06 C-234.24 431.26 -235.71 430.44 -237.19 429.62 C-237.19 428.96 -237.19 428.31 -237.19 427.62 C-238.28 427.46 -238.28 427.46 -239.4 427.29 C-242.36 426.58 -244.26 425.56 -246.81 423.94 C-252.16 420.61 -257.64 417.6 -263.19 414.62 C-263.19 413.96 -263.19 413.31 -263.19 412.62 C-263.71 412.53 -264.23 412.44 -264.77 412.35 C-268.06 411.36 -270.94 409.72 -273.94 408.06 C-274.84 407.57 -274.84 407.57 -275.76 407.06 C-277.24 406.26 -278.71 405.44 -280.19 404.62 C-280.19 403.96 -280.19 403.31 -280.19 402.62 C-280.71 402.54 -281.24 402.45 -281.78 402.36 C-285.05 401.36 -287.83 399.67 -290.75 397.94 C-292.02 397.2 -293.28 396.47 -294.55 395.73 C-295.17 395.37 -295.79 395.01 -296.43 394.63 C-298.76 393.29 -301.13 392.02 -303.5 390.75 C-312.66 385.79 -321.6 380.41 -330.51 375.02 C-331.19 374.6 -331.87 374.19 -332.58 373.76 C-333.87 372.98 -335.16 372.19 -336.45 371.41 C-339.02 369.85 -341.33 368.58 -344.19 367.62 C-344.19 366.96 -344.19 366.31 -344.19 365.62 C-344.91 365.52 -345.62 365.42 -346.36 365.31 C-349.5 364.55 -351.65 363.34 -354.38 361.62 C-357.72 359.52 -357.72 359.52 -361.19 357.62 C-361.19 356.96 -361.19 356.31 -361.19 355.62 C-361.92 355.52 -362.65 355.41 -363.4 355.29 C-366.36 354.58 -368.26 353.56 -370.81 351.94 C-379.07 345.91 -379.07 345.91 -388.19 342.62 C-388.19 343.51 -388.19 344.39 -388.19 345.3 C-388.3 397.54 -388.4 449.78 -388.52 502.02 C-388.53 508.29 -388.55 514.56 -388.56 520.83 C-388.56 522.08 -388.57 523.33 -388.57 524.61 C-388.61 544.83 -388.65 565.06 -388.69 585.28 C-388.73 606.02 -388.78 626.77 -388.82 647.51 C-388.85 660.31 -388.88 673.12 -388.9 685.92 C-388.92 694.7 -388.94 703.47 -388.96 712.25 C-388.97 717.32 -388.98 722.38 -388.99 727.45 C-389 732.08 -389.01 736.72 -389.02 741.36 C-389.03 743.04 -389.03 744.72 -389.03 746.39 C-389.03 748.67 -389.04 750.95 -389.05 753.24 C-389.05 754.5 -389.05 755.77 -389.06 757.08 C-389.41 766.7 -392.33 774.32 -398.91 781.51 C-402.53 784.62 -402.53 784.62 -405.19 784.62 C-405.19 785.28 -405.19 785.95 -405.19 786.62 C-415.68 792.49 -427.41 793.71 -439.12 790.93 C-441.35 790.01 -443.2 788.98 -445.19 787.62 C-445.88 787.19 -446.57 786.75 -447.28 786.3 C-454.61 781.3 -460.19 774 -463.19 765.62 C-463.75 761.57 -463.73 757.56 -463.7 753.48 C-463.71 752.27 -463.71 751.06 -463.72 749.81 C-463.74 746.47 -463.73 743.13 -463.72 739.79 C-463.71 736.18 -463.73 732.57 -463.74 728.96 C-463.76 722.71 -463.77 716.46 -463.77 710.21 C-463.76 701.17 -463.78 692.13 -463.8 683.09 C-463.83 668.43 -463.85 653.76 -463.86 639.09 C-463.87 624.85 -463.88 610.61 -463.9 596.37 C-463.91 595.5 -463.91 594.62 -463.91 593.71 C-463.92 584.13 -463.94 574.56 -463.96 564.98 C-463.96 564.14 -463.96 563.29 -463.96 562.43 C-463.97 557.39 -463.97 557.39 -463.98 552.34 C-464 542.49 -464.01 532.64 -464.02 522.79 C-464.02 516.62 -464.03 510.45 -464.04 504.28 C-464.04 500.02 -464.05 495.77 -464.04 491.52 C-464.04 488.35 -464.05 485.18 -464.06 482.01 C-464.05 480.87 -464.05 479.74 -464.05 478.57 C-464.06 477.03 -464.06 477.03 -464.06 475.46 C-464.06 474.56 -464.06 473.67 -464.06 472.76 C-464.05 470.57 -464.05 470.57 -465.19 468.62 C-465.29 466.11 -465.32 463.62 -465.31 461.1 C-465.32 460.32 -465.32 459.53 -465.32 458.72 C-465.32 456.08 -465.32 453.43 -465.32 450.79 C-465.32 448.9 -465.32 447.01 -465.32 445.12 C-465.33 439.97 -465.32 434.83 -465.32 429.68 C-465.32 424.31 -465.32 418.94 -465.32 413.57 C-465.33 404.54 -465.32 395.52 -465.32 386.5 C-465.31 376.05 -465.31 365.6 -465.32 355.16 C-465.32 346.2 -465.32 337.25 -465.32 328.29 C-465.32 322.94 -465.32 317.58 -465.32 312.23 C-465.33 307.2 -465.32 302.16 -465.32 297.13 C-465.32 295.28 -465.32 293.43 -465.32 291.57 C-465.32 289.06 -465.32 286.54 -465.31 284.02 C-465.32 283.28 -465.32 282.54 -465.32 281.77 C-465.3 276.74 -465.3 276.74 -464.19 275.62 C-464.03 274.23 -463.91 272.84 -463.81 271.44 C-463.37 267.22 -462.38 264.31 -460.19 260.62 C-459.57 259.56 -459.57 259.56 -458.95 258.48 C-456.44 254.25 -456.44 254.25 -455.19 252.62 C-454.53 252.62 -453.87 252.62 -453.19 252.62 C-453.19 251.97 -453.19 251.31 -453.19 250.62 C-451.82 249.5 -451.82 249.5 -449.89 248.27 C-449.18 247.81 -448.48 247.36 -447.75 246.89 C-446.99 246.41 -446.22 245.93 -445.44 245.44 C-444.67 244.95 -443.9 244.46 -443.1 243.95 C-425.2 232.62 -425.2 232.62 -421.19 232.62 C-421.19 231.97 -421.19 231.31 -421.19 230.62 C-418.28 228.58 -416.79 227.62 -413.19 227.62 C-413.19 226.97 -413.19 226.31 -413.19 225.62 C-412.43 225.22 -411.67 224.81 -410.89 224.38 C-409.89 223.84 -408.9 223.31 -407.88 222.75 C-406.89 222.22 -405.9 221.68 -404.89 221.13 C-402.09 219.62 -402.09 219.62 -399.19 217.62 C-398.2 217.62 -397.21 217.62 -396.19 217.62 C-396.19 216.97 -396.19 216.31 -396.19 215.62 C-393.28 213.58 -391.79 212.62 -388.19 212.62 C-388.19 211.97 -388.19 211.31 -388.19 210.62 C-387.51 210.26 -386.83 209.9 -386.13 209.52 C-378.81 205.57 -371.59 201.46 -364.59 196.95 C-362.19 195.62 -362.19 195.62 -359.19 195.62 C-359.19 194.97 -359.19 194.31 -359.19 193.62 C-356.28 191.58 -354.79 190.62 -351.19 190.62 C-351.19 189.97 -351.19 189.31 -351.19 188.62 C-349.54 188.29 -347.89 187.97 -346.19 187.62 C-346.19 186.97 -346.19 186.31 -346.19 185.62 C-344.75 184.78 -343.32 183.95 -341.88 183.12 C-341.07 182.66 -340.27 182.2 -339.45 181.72 C-337.19 180.62 -337.19 180.62 -334.19 180.62 C-334.19 179.97 -334.19 179.31 -334.19 178.62 C-333.39 178.19 -333.39 178.19 -332.57 177.74 C-325.64 173.93 -318.77 170.01 -312.19 165.62 C-311.2 165.62 -310.21 165.62 -309.19 165.62 C-309.19 164.97 -309.19 164.31 -309.19 163.62 C-308.43 163.22 -307.67 162.81 -306.89 162.38 C-305.89 161.84 -304.9 161.31 -303.88 160.75 C-302.89 160.22 -301.9 159.68 -300.89 159.13 C-298.09 157.62 -298.09 157.62 -295.19 155.62 C-294.2 155.62 -293.21 155.62 -292.19 155.62 C-292.19 154.97 -292.19 154.31 -292.19 153.62 C-289.28 151.58 -287.79 150.62 -284.19 150.62 C-284.19 149.97 -284.19 149.31 -284.19 148.62 C-283.43 148.22 -282.67 147.81 -281.89 147.38 C-280.89 146.84 -279.9 146.31 -278.88 145.75 C-277.89 145.22 -276.9 144.68 -275.89 144.13 C-273.09 142.62 -273.09 142.62 -270.19 140.62 C-269.2 140.62 -268.21 140.62 -267.19 140.62 C-267.19 139.97 -267.19 139.31 -267.19 138.62 C-264.28 136.58 -262.79 135.62 -259.19 135.62 C-259.19 134.97 -259.19 134.31 -259.19 133.62 C-257.75 132.78 -256.32 131.95 -254.88 131.12 C-254.07 130.66 -253.27 130.2 -252.45 129.72 C-250.19 128.62 -250.19 128.62 -247.19 128.62 C-247.19 127.97 -247.19 127.31 -247.19 126.62 C-245.4 125.62 -243.61 124.62 -241.81 123.62 C-240.81 123.07 -239.82 122.51 -238.79 121.94 C-236.19 120.62 -236.19 120.62 -234.19 120.62 C-234.19 119.97 -234.19 119.31 -234.19 118.62 C-232.87 118.62 -231.55 118.62 -230.19 118.62 C-230.19 117.97 -230.19 117.31 -230.19 116.62 C-228.4 115.62 -226.61 114.62 -224.81 113.62 C-223.81 113.07 -222.82 112.51 -221.79 111.94 C-219.19 110.62 -219.19 110.62 -217.19 110.62 C-217.19 109.97 -217.19 109.31 -217.19 108.62 C-215.75 107.78 -214.32 106.95 -212.88 106.12 C-211.67 105.43 -211.67 105.43 -210.45 104.72 C-208.19 103.62 -208.19 103.62 -205.19 103.62 C-205.19 102.97 -205.19 102.31 -205.19 101.62 C-202.92 100.28 -200.65 98.95 -198.38 97.62 C-197.73 97.24 -197.09 96.86 -196.43 96.47 C-191.53 93.62 -191.53 93.62 -188.19 93.62 C-188.19 92.97 -188.19 92.31 -188.19 91.62 C-185.28 89.58 -183.79 88.62 -180.19 88.62 C-180.19 87.97 -180.19 87.31 -180.19 86.62 C-179.43 86.22 -178.67 85.81 -177.89 85.38 C-176.89 84.84 -175.9 84.31 -174.88 83.75 C-173.4 82.95 -173.4 82.95 -171.89 82.13 C-169.09 80.62 -169.09 80.62 -166.19 78.62 C-165.2 78.62 -164.21 78.62 -163.19 78.62 C-163.19 77.97 -163.19 77.31 -163.19 76.62 C-162.19 76.1 -162.19 76.1 -161.17 75.56 C-155.07 72.29 -149.24 68.8 -143.5 64.95 C-141.19 63.62 -141.19 63.62 -138.19 63.62 C-138.19 62.97 -138.19 62.31 -138.19 61.62 C-136.75 60.78 -135.32 59.95 -133.88 59.12 C-133.07 58.66 -132.27 58.2 -131.45 57.72 C-129.19 56.62 -129.19 56.62 -126.19 56.62 C-126.19 55.97 -126.19 55.3 -126.19 54.62 C-123.28 52.58 -121.79 51.62 -118.19 51.62 C-118.19 50.97 -118.19 50.3 -118.19 49.62 C-115.92 48.28 -113.65 46.95 -111.38 45.62 C-110.73 45.24 -110.09 44.86 -109.43 44.47 C-104.53 41.62 -104.53 41.62 -101.19 41.62 C-101.19 40.97 -101.19 40.3 -101.19 39.62 C-100.1 39.02 -99.02 38.42 -97.9 37.8 C-96.45 36.99 -95.01 36.18 -93.56 35.38 C-92.85 34.98 -92.14 34.58 -91.4 34.18 C-88.12 32.34 -84.93 30.49 -81.85 28.33 C-79.19 26.62 -79.19 26.62 -76.19 26.62 C-76.19 25.96 -76.19 25.3 -76.19 24.62 C-73.92 23.28 -71.65 21.95 -69.38 20.62 C-68.73 20.24 -68.09 19.86 -67.43 19.47 C-62.53 16.62 -62.53 16.62 -59.19 16.62 C-59.19 15.96 -59.19 15.3 -59.19 14.62 C-56.28 12.58 -54.79 11.62 -51.19 11.62 C-51.19 10.96 -51.19 10.3 -51.19 9.62 C-49.75 8.78 -48.32 7.95 -46.88 7.12 C-46.07 6.66 -45.27 6.2 -44.45 5.72 C-42.19 4.62 -42.19 4.62 -39.19 4.62 C-39.19 3.96 -39.19 3.3 -39.19 2.62 C-28.63 -4.44 -11.43 -5.67 0 0 Z " fill="#FDFDFD" transform="translate(465.1875,2.375)"/>
<path d="M0 0 C2.79 0.44 5.31 1.1 8 2 C8 2.66 8 3.32 8 4 C8.56 4.1 9.11 4.21 9.68 4.31 C12.48 5.14 14.6 6.45 17.06 8 C19.76 9.69 21.97 10.99 25 12 C25 12.66 25 13.32 25 14 C25.53 14.09 26.06 14.17 26.61 14.26 C29.86 15.27 32.38 16.98 35.25 18.81 C40.05 21.84 44.86 24.58 50 27 C50 27.66 50 28.32 50 29 C50.52 29.09 51.04 29.18 51.58 29.28 C54.88 30.26 57.76 31.9 60.75 33.56 C61.35 33.89 61.95 34.22 62.57 34.56 C64.05 35.37 65.53 36.18 67 37 C67 37.66 67 38.32 67 39 C67.87 39.19 67.87 39.19 68.75 39.38 C71.02 40.01 72.93 40.89 75 42 C75 42.66 75 43.32 75 44 C75.57 44.12 76.14 44.24 76.73 44.37 C79.1 45.03 81.07 45.94 83.25 47.06 C84.31 47.61 84.31 47.61 85.39 48.16 C85.92 48.44 86.45 48.71 87 49 C87 49.66 87 50.32 87 51 C87.74 51.11 88.48 51.22 89.24 51.33 C92.14 52.03 93.73 52.95 96.12 54.69 C101.2 58.22 106.54 61.12 112 64 C112 64.66 112 65.32 112 66 C112.73 66.1 113.46 66.21 114.21 66.31 C117.26 67.07 119.08 68.18 121.62 70 C124.18 71.81 126.01 73 129 74 C129 74.66 129 75.32 129 76 C129.87 76.19 129.87 76.19 130.75 76.38 C133.02 77.01 134.93 77.89 137 79 C137 79.66 137 80.32 137 81 C137.72 81.1 138.44 81.21 139.18 81.31 C142.31 82.08 144.46 83.28 147.19 85 C150.53 87.11 150.53 87.11 154 89 C154 89.66 154 90.32 154 91 C154.57 91.12 155.14 91.24 155.73 91.37 C158.1 92.03 160.07 92.94 162.25 94.06 C163.31 94.61 163.31 94.61 164.39 95.16 C164.92 95.44 165.45 95.71 166 96 C166 96.66 166 97.32 166 98 C166.66 98.25 167.32 98.5 168 98.75 C171.76 100.32 175.37 102.15 179 104 C179 104.66 179 105.32 179 106 C179.52 106.09 180.04 106.18 180.58 106.28 C183.88 107.26 186.76 108.9 189.75 110.56 C190.35 110.89 190.95 111.22 191.57 111.56 C193.05 112.37 194.53 113.18 196 114 C196 114.66 196 115.32 196 116 C196.57 116.12 197.14 116.24 197.73 116.37 C200.1 117.03 202.07 117.94 204.25 119.06 C205.31 119.61 205.31 119.61 206.39 120.16 C206.92 120.44 207.45 120.71 208 121 C208 121.66 208 122.32 208 123 C208.87 123.19 208.87 123.19 209.75 123.38 C212.02 124.01 213.93 124.89 216 126 C216 126.66 216 127.32 216 128 C217.09 128.15 217.09 128.15 218.21 128.31 C221.26 129.07 223.08 130.18 225.62 132 C228.18 133.81 230.01 135 233 136 C233 136.66 233 137.32 233 138 C233.87 138.19 233.87 138.19 234.75 138.38 C237.02 139.01 238.93 139.89 241 141 C241 141.66 241 142.32 241 143 C242.08 143.15 242.08 143.15 243.18 143.31 C246.31 144.08 248.46 145.28 251.19 147 C254.53 149.11 254.53 149.11 258 151 C258 151.66 258 152.32 258 153 C258.57 153.12 259.15 153.24 259.74 153.36 C262.13 154.04 263.97 154.96 266.12 156.19 C266.9 156.63 267.68 157.07 268.48 157.53 C271.98 159.58 275.46 161.66 278.93 163.77 C280.96 165.01 280.96 165.01 283 166 C283 166.66 283 167.32 283 168 C283.52 168.09 284.04 168.18 284.58 168.28 C287.88 169.26 290.76 170.9 293.75 172.56 C294.35 172.89 294.95 173.22 295.57 173.56 C297.05 174.37 298.53 175.18 300 176 C300 176.66 300 177.32 300 178 C300.87 178.19 300.87 178.19 301.75 178.38 C304.02 179.01 305.93 179.89 308 181 C308 181.66 308 182.32 308 183 C308.59 183.13 309.17 183.25 309.78 183.38 C311.96 183.99 313.61 184.76 315.57 185.89 C316.24 186.27 316.9 186.65 317.59 187.04 C318.28 187.44 318.97 187.84 319.69 188.25 C321.12 189.07 322.55 189.88 323.98 190.7 C324.67 191.09 325.36 191.49 326.07 191.9 C328.53 193.31 331.01 194.69 333.5 196.06 C334.54 196.64 334.54 196.64 335.59 197.22 C336.06 197.48 336.52 197.74 337 198 C335.64 201.28 334.41 202.69 331.32 204.41 C330.56 204.84 329.81 205.26 329.03 205.7 C327.81 206.38 327.81 206.38 326.56 207.06 C324.83 208.04 323.09 209.02 321.36 210 C320.47 210.5 319.57 211 318.66 211.51 C314.54 213.82 310.46 216.19 306.38 218.56 C305.59 219.02 304.8 219.48 303.98 219.95 C298.85 222.92 293.73 225.92 288.62 228.94 C281.29 233.27 273.89 237.51 266.48 241.71 C261.39 244.61 256.36 247.58 251.34 250.6 C248.08 252.55 244.76 254.41 241.44 256.25 C232.88 261.03 224.44 266 216 271 C205.98 276.93 195.92 282.78 185.8 288.54 C179.65 292.04 173.55 295.61 167.46 299.21 C160.9 303.08 154.28 306.84 147.66 310.6 C142.5 313.55 137.39 316.54 132.31 319.62 C127.09 322.8 121.79 325.81 116.44 328.75 C108.54 333.09 100.79 337.64 93.04 342.25 C87.63 345.46 82.19 348.62 76.69 351.69 C67.51 356.8 58.48 362.16 49.44 367.52 C38.22 374.18 26.97 380.78 15.61 387.22 C14.79 387.69 13.96 388.15 13.11 388.64 C12.39 389.05 11.67 389.46 10.92 389.88 C9.24 390.86 7.62 391.92 6 393 C2.5 393.12 2.5 393.12 -1 393 C-1.99 393 -2.98 393 -4 393 C-5.97 391.96 -7.91 390.85 -9.81 389.69 C-12.93 387.8 -15.99 386 -19.26 384.39 C-22 383 -22 383 -24 381 C-25.89 380.04 -27.78 379.08 -29.69 378.15 C-33.53 376.23 -37.26 374.11 -41 372 C-41 371.34 -41 370.68 -41 370 C-42.32 369.67 -43.64 369.34 -45 369 C-45 368.67 -45 368.34 -45 368 C-45.76 367.88 -46.53 367.75 -47.31 367.62 C-50 367 -50 367 -53 365 C-53 364.34 -53 363.68 -53 363 C-53.72 362.9 -54.44 362.79 -55.18 362.69 C-58.31 361.92 -60.46 360.72 -63.19 359 C-66.53 356.89 -66.53 356.89 -70 355 C-70 354.34 -70 353.68 -70 353 C-70.73 352.89 -71.46 352.77 -72.21 352.65 C-75.06 351.99 -77.05 351.03 -79.56 349.56 C-82.34 347.95 -85.11 346.41 -88 345 C-88 344.34 -88 343.68 -88 343 C-88.58 342.9 -89.15 342.79 -89.75 342.69 C-92.35 341.89 -93.87 340.66 -96 339 C-98.03 337.92 -100.09 336.96 -102.19 336 C-104 335 -104 335 -105 333 C-106.66 332.64 -108.33 332.31 -110 332 C-112.31 330.94 -112.31 330.94 -114 330 C-114 329.34 -114 328.68 -114 328 C-114.59 327.87 -115.18 327.75 -115.78 327.61 C-119.31 326.64 -122.35 324.69 -125.5 322.88 C-126.56 322.27 -126.56 322.27 -127.63 321.66 C-129.76 320.44 -131.88 319.22 -134 318 C-135.22 317.31 -136.43 316.61 -137.65 315.92 C-145.73 311.27 -145.73 311.27 -148 309 C-150.07 308.36 -150.07 308.36 -152 308 C-152 307.34 -152 306.68 -152 306 C-152.78 305.9 -153.57 305.79 -154.38 305.69 C-157 305 -157 305 -159 302 C-161.31 300.88 -161.31 300.88 -163.94 300 C-167.41 298.77 -169.52 297.72 -172 295 C-172.7 294.65 -173.4 294.3 -174.12 293.94 C-176 293 -176 293 -177 291 C-177.7 290.88 -178.4 290.75 -179.12 290.62 C-183.07 289.77 -187.11 287.89 -190 285 C-190.74 284.75 -191.49 284.5 -192.25 284.25 C-195 283 -195 283 -197.31 280.56 C-200.22 277.79 -202.4 276.87 -206.13 275.62 C-208.2 274.93 -210.08 274.04 -212 273 C-212 272.34 -212 271.68 -212 271 C-212.72 270.89 -213.45 270.79 -214.19 270.68 C-217.25 269.94 -219.29 268.81 -221.94 267.12 C-224.79 265.34 -227.54 263.74 -230.56 262.25 C-233 261 -233 261 -234 259 C-234.74 258.71 -235.49 258.42 -236.25 258.12 C-239.34 256.86 -241.42 255.1 -244 253 C-244.99 252.67 -245.98 252.34 -247 252 C-248.49 251.01 -248.49 251.01 -250 250 C-250.99 249.67 -251.98 249.34 -253 249 C-253.66 248.34 -254.32 247.68 -255 247 C-256.21 246.34 -257.44 245.72 -258.69 245.12 C-268.82 240.18 -268.82 240.18 -272 237 C-274.07 236.36 -274.07 236.36 -276 236 C-276 235.34 -276 234.68 -276 234 C-277.14 233.81 -277.14 233.81 -278.31 233.62 C-281 233 -281 233 -284 231 C-284 230.34 -284 229.68 -284 229 C-284.72 228.89 -285.44 228.79 -286.18 228.68 C-289.26 227.94 -291.38 226.79 -294.06 225.12 C-294.9 224.61 -295.74 224.1 -296.6 223.57 C-298.16 222.55 -299.68 221.48 -301.17 220.36 C-302.97 218.9 -302.97 218.9 -305.25 218.12 C-310.2 216.1 -314.56 212.96 -319 210 C-319.64 209.69 -320.28 209.38 -320.94 209.06 C-323 208 -323 208 -324.94 206.5 C-326.98 204.86 -326.98 204.86 -329.69 204.06 C-330.45 203.71 -331.21 203.36 -332 203 C-332.64 200.93 -332.64 200.93 -333 199 C-319.63 190 -319.63 190 -316 190 C-316 189.34 -316 188.68 -316 188 C-315.32 187.64 -314.64 187.27 -313.95 186.9 C-306.34 182.79 -298.89 178.47 -291.59 173.84 C-291.01 173.48 -290.42 173.11 -289.82 172.73 C-288.14 171.67 -286.46 170.61 -284.79 169.54 C-282 168 -282 168 -279 168 C-279 167.34 -279 166.68 -279 166 C-278 165.44 -276.99 164.89 -275.96 164.31 C-267.16 159.41 -258.53 154.34 -250 149 C-242.98 144.61 -235.95 140.35 -228.64 136.45 C-225.08 134.49 -221.63 132.36 -218.19 130.2 C-216.1 129.06 -214.33 128.45 -212 128 C-212 127.34 -212 126.68 -212 126 C-211.19 125.61 -210.38 125.23 -209.55 124.83 C-207.95 124.05 -207.95 124.05 -206.31 123.25 C-205.26 122.74 -204.2 122.23 -203.11 121.7 C-200.09 120.05 -197.67 118.17 -195 116 C-193.29 115 -191.56 114.04 -189.81 113.12 C-183.11 109.54 -176.63 105.66 -170.2 101.61 C-163.43 97.34 -156.69 93.19 -149.61 89.45 C-145.71 87.28 -142.02 84.81 -138.31 82.32 C-136 81 -136 81 -133 81 C-133 80.34 -133 79.68 -133 79 C-132.32 78.64 -131.64 78.27 -130.95 77.9 C-130.01 77.4 -129.08 76.89 -128.12 76.38 C-127.22 75.89 -126.32 75.4 -125.38 74.9 C-120.86 72.36 -116.44 69.68 -112 67 C-110.43 66.06 -108.85 65.12 -107.28 64.18 C-98.16 58.71 -89.05 53.23 -80 47.65 C-76.31 45.39 -72.59 43.19 -68.82 41.05 C-65.25 38.99 -61.76 36.79 -58.25 34.62 C-52.46 31.06 -46.63 27.65 -40.63 24.45 C-35.3 21.51 -30.16 18.22 -25 15 C-17.78 10.49 -10.56 6.12 -3.05 2.13 C-1.07 1.16 -1.07 1.16 0 0 Z M-314 211 C-314 211.66 -314 212.32 -314 213 C-313.34 212.67 -312.68 212.34 -312 212 C-312.66 211.67 -313.32 211.34 -314 211 Z " fill="#F15925" transform="translate(603,77)"/>
<path d="M0 0 C2.64 0 5.28 0 8 0 C8 0.33 8 0.66 8 1 C5.36 1 2.72 1 0 1 C0 0.67 0 0.34 0 0 Z " fill="#FDFDFD" transform="translate(601,471)"/>
<path d="M0 0 C3 1 3 1 3 1 Z " fill="#FDFDFD" transform="translate(653,444)"/>
<path d="M0 0 C3 1 3 1 3 1 Z " fill="#FDFDFD" transform="translate(670,434)"/>
<path d="M0 0 C3 1 3 1 3 1 Z " fill="#FDFDFD" transform="translate(855,327)"/>
<path d="M0 0 C3 1 3 1 3 1 Z " fill="#FDFDFD" transform="translate(910,295)"/>
<path d="M0 0 C2 1 2 1 2 1 Z " fill="#FDFDFD" transform="translate(616,466)"/>
<path d="M0 0 C2 1 2 1 2 1 Z " fill="#FDFDFD" transform="translate(619,464)"/>
<path d="M0 0 C2 1 2 1 2 1 Z " fill="#FDFDFD" transform="translate(624,461)"/>
<path d="M0 0 C2 1 2 1 2 1 Z " fill="#FDFDFD" transform="translate(633,456)"/>
<path d="M0 0 C2 1 2 1 2 1 Z " fill="#FDFDFD" transform="translate(642,451)"/>
<path d="M0 0 C2 1 2 1 2 1 Z " fill="#FDFDFD" transform="translate(645,449)"/>
<path d="M0 0 C2 1 2 1 2 1 Z " fill="#FDFDFD" transform="translate(659,441)"/>
<path d="M0 0 C2 1 2 1 2 1 Z " fill="#FDFDFD" transform="translate(662,439)"/>
<path d="M0 0 C2 1 2 1 2 1 Z " fill="#FDFDFD" transform="translate(676,431)"/>
<path d="M0 0 C2 1 2 1 2 1 Z " fill="#FDFDFD" transform="translate(685,426)"/>
<path d="M0 0 C2 1 2 1 2 1 Z " fill="#FDFDFD" transform="translate(688,424)"/>
<path d="M0 0 C2 1 2 1 2 1 Z " fill="#FDFDFD" transform="translate(697,419)"/>
<path d="M0 0 C2 1 2 1 2 1 Z " fill="#FDFDFD" transform="translate(705,414)"/>
<path d="M0 0 C2 1 2 1 2 1 Z " fill="#FDFDFD" transform="translate(714,409)"/>
<path d="M0 0 C2 1 2 1 2 1 Z " fill="#FDFDFD" transform="translate(717,407)"/>
<path d="M0 0 C2 1 2 1 2 1 Z " fill="#FDFDFD" transform="translate(723,404)"/>
<path d="M0 0 C2 1 2 1 2 1 Z " fill="#FDFDFD" transform="translate(731,399)"/>
<path d="M0 0 C2 1 2 1 2 1 Z " fill="#FDFDFD" transform="translate(740,394)"/>
<path d="M0 0 C2 1 2 1 2 1 Z " fill="#FDFDFD" transform="translate(743,392)"/>
<path d="M0 0 C2 1 2 1 2 1 Z " fill="#FDFDFD" transform="translate(749,389)"/>
<path d="M0 0 C2 1 2 1 2 1 Z " fill="#FDFDFD" transform="translate(766,379)"/>
<path d="M0 0 C2 1 2 1 2 1 Z " fill="#FDFDFD" transform="translate(769,377)"/>
<path d="M0 0 C2 1 2 1 2 1 Z " fill="#FDFDFD" transform="translate(778,372)"/>
<path d="M0 0 C2 1 2 1 2 1 Z " fill="#FDFDFD" transform="translate(783,369)"/>
<path d="M0 0 C2 1 2 1 2 1 Z " fill="#FDFDFD" transform="translate(786,367)"/>
<path d="M0 0 C2 1 2 1 2 1 Z " fill="#FDFDFD" transform="translate(795,362)"/>
<path d="M0 0 C2 1 2 1 2 1 Z " fill="#FDFDFD" transform="translate(804,357)"/>
<path d="M0 0 C2 1 2 1 2 1 Z " fill="#FDFDFD" transform="translate(807,355)"/>
<path d="M0 0 C2 1 2 1 2 1 Z " fill="#FDFDFD" transform="translate(821,347)"/>
<path d="M0 0 C2 1 2 1 2 1 Z " fill="#FDFDFD" transform="translate(824,345)"/>
<path d="M0 0 C2 1 2 1 2 1 Z " fill="#FDFDFD" transform="translate(829,342)"/>
<path d="M0 0 C2 1 2 1 2 1 Z " fill="#FDFDFD" transform="translate(838,337)"/>
<path d="M0 0 C2 1 2 1 2 1 Z " fill="#FDFDFD" transform="translate(841,335)"/>
<path d="M0 0 C2 1 2 1 2 1 Z " fill="#FDFDFD" transform="translate(847,332)"/>
<path d="M0 0 C2 1 2 1 2 1 Z " fill="#FDFDFD" transform="translate(864,322)"/>
<path d="M0 0 C2 1 2 1 2 1 Z " fill="#FDFDFD" transform="translate(867,320)"/>
<path d="M0 0 C2 1 2 1 2 1 Z " fill="#FDFDFD" transform="translate(876,315)"/>
<path d="M0 0 C2 1 2 1 2 1 Z " fill="#FDFDFD" transform="translate(890,307)"/>
<path d="M0 0 C2 1 2 1 2 1 Z " fill="#FDFDFD" transform="translate(902,300)"/>
<path d="M0 0 C2 1 2 1 2 1 Z " fill="#FDFDFD" transform="translate(907,297)"/>
<path d="M0 0 C2 1 2 1 2 1 Z " fill="#FDFDFD" transform="translate(919,290)"/>
<path d="M0 0 C2 1 2 1 2 1 Z " fill="#FDFDFD" transform="translate(928,285)"/>
<path d="M0 0 C2 1 2 1 2 1 Z " fill="#FDFDFD" transform="translate(931,283)"/>
<path d="M0 0 C2 1 2 1 2 1 Z " fill="#FDFDFD" transform="translate(936,280)"/>
<path d="" fill="#FDFDFD" transform="translate(0,0)"/>
<path d="" fill="#FDFDFD" transform="translate(0,0)"/>
<path d="" fill="#FDFDFD" transform="translate(0,0)"/>
<path d="" fill="#FDFDFD" transform="translate(0,0)"/>
<path d="" fill="#FDFDFD" transform="translate(0,0)"/>
<path d="" fill="#FDFDFD" transform="translate(0,0)"/>
<path d="" fill="#FDFDFD" transform="translate(0,0)"/>
<path d="" fill="#FDFDFD" transform="translate(0,0)"/>
<path d="" fill="#FDFDFD" transform="translate(0,0)"/>
<path d="" fill="#FDFDFD" transform="translate(0,0)"/>
<path d="" fill="#FDFDFD" transform="translate(0,0)"/>
<path d="" fill="#FDFDFD" transform="translate(0,0)"/>
<path d="" fill="#FDFDFD" transform="translate(0,0)"/>
<path d="" fill="#FDFDFD" transform="translate(0,0)"/>
<path d="" fill="#FDFDFD" transform="translate(0,0)"/>
<path d="" fill="#FDFDFD" transform="translate(0,0)"/>
<path d="" fill="#FDFDFD" transform="translate(0,0)"/>
<path d="" fill="#FDFDFD" transform="translate(0,0)"/>
<path d="" fill="#FDFDFD" transform="translate(0,0)"/>
<path d="" fill="#FDFDFD" transform="translate(0,0)"/>
<path d="" fill="#FDFDFD" transform="translate(0,0)"/>
<path d="" fill="#FDFDFD" transform="translate(0,0)"/>
<path d="" fill="#FDFDFD" transform="translate(0,0)"/>
<path d="" fill="#FDFDFD" transform="translate(0,0)"/>
<path d="" fill="#FDFDFD" transform="translate(0,0)"/>
<path d="" fill="#FDFDFD" transform="translate(0,0)"/>
<path d="" fill="#FDFDFD" transform="translate(0,0)"/>
<path d="" fill="#FDFDFD" transform="translate(0,0)"/>
<path d="" fill="#FDFDFD" transform="translate(0,0)"/>
<path d="" fill="#FDFDFD" transform="translate(0,0)"/>
<path d="" fill="#FDFDFD" transform="translate(0,0)"/>
<path d="" fill="#FDFDFD" transform="translate(0,0)"/>
<path d="" fill="#FDFDFD" transform="translate(0,0)"/>
<path d="" fill="#FDFDFD" transform="translate(0,0)"/>
<path d="" fill="#FDFDFD" transform="translate(0,0)"/>
<path d="" fill="#FDFDFD" transform="translate(0,0)"/>
<path d="" fill="#FDFDFD" transform="translate(0,0)"/>
<path d="" fill="#FDFDFD" transform="translate(0,0)"/>
<path d="" fill="#FDFDFD" transform="translate(0,0)"/>
<path d="" fill="#FDFDFD" transform="translate(0,0)"/>
<path d="" fill="#FDFDFD" transform="translate(0,0)"/>
<path d="" fill="#FDFDFD" transform="translate(0,0)"/>
<path d="" fill="#FDFDFD" transform="translate(0,0)"/>
<path d="" fill="#FDFDFD" transform="translate(0,0)"/>
<path d="" fill="#FDFDFD" transform="translate(0,0)"/>
<path d="" fill="#FDFDFD" transform="translate(0,0)"/>
<path d="" fill="#FDFDFD" transform="translate(0,0)"/>
<path d="" fill="#FDFDFD" transform="translate(0,0)"/>
<path d="" fill="#FDFDFD" transform="translate(0,0)"/>
<path d="" fill="#FDFDFD" transform="translate(0,0)"/>
<path d="" fill="#FDFDFD" transform="translate(0,0)"/>
<path d="" fill="#FDFDFD" transform="translate(0,0)"/>
<path d="" fill="#FDFDFD" transform="translate(0,0)"/>
<path d="" fill="#FDFDFD" transform="translate(0,0)"/>
<path d="" fill="#FDFDFD" transform="translate(0,0)"/>
<path d="" fill="#FDFDFD" transform="translate(0,0)"/>
<path d="" fill="#FDFDFD" transform="translate(0,0)"/>
<path d="" fill="#FDFDFD" transform="translate(0,0)"/>
<path d="" fill="#FDFDFD" transform="translate(0,0)"/>
<path d="" fill="#FDFDFD" transform="translate(0,0)"/>
<path d="" fill="#FDFDFD" transform="translate(0,0)"/>
<path d="" fill="#FDFDFD" transform="translate(0,0)"/>
<path d="" fill="#FDFDFD" transform="translate(0,0)"/>
<path d="" fill="#FDFDFD" transform="translate(0,0)"/>
<path d="" fill="#FDFDFD" transform="translate(0,0)"/>
<path d="" fill="#FDFDFD" transform="translate(0,0)"/>
<path d="" fill="#FDFDFD" transform="translate(0,0)"/>
<path d="" fill="#FDFDFD" transform="translate(0,0)"/>
<path d="" fill="#FDFDFD" transform="translate(0,0)"/>
<path d="" fill="#FDFDFD" transform="translate(0,0)"/>
<path d="" fill="#FDFDFD" transform="translate(0,0)"/>
<path d="" fill="#FDFDFD" transform="translate(0,0)"/>
<path d="" fill="#FDFDFD" transform="translate(0,0)"/>
<path d="" fill="#FDFDFD" transform="translate(0,0)"/>
<path d="" fill="#FDFDFD" transform="translate(0,0)"/>
<path d="" fill="#FDFDFD" transform="translate(0,0)"/>
<path d="" fill="#FDFDFD" transform="translate(0,0)"/>
<path d="" fill="#FDFDFD" transform="translate(0,0)"/>
<path d="" fill="#FDFDFD" transform="translate(0,0)"/>
<path d="" fill="#FDFDFD" transform="translate(0,0)"/>
<path d="" fill="#FDFDFD" transform="translate(0,0)"/>
<path d="" fill="#FDFDFD" transform="translate(0,0)"/>
<path d="" fill="#FDFDFD" transform="translate(0,0)"/>
<path d="" fill="#FDFDFD" transform="translate(0,0)"/>
<path d="" fill="#FDFDFD" transform="translate(0,0)"/>
<path d="" fill="#FDFDFD" transform="translate(0,0)"/>
<path d="" fill="#FDFDFD" transform="translate(0,0)"/>
<path d="" fill="#FDFDFD" transform="translate(0,0)"/>
<path d="" fill="#FDFDFD" transform="translate(0,0)"/>
<path d="" fill="#FDFDFD" transform="translate(0,0)"/>
<path d="" fill="#FDFDFD" transform="translate(0,0)"/>
<path d="" fill="#FDFDFD" transform="translate(0,0)"/>
<path d="" fill="#FDFDFD" transform="translate(0,0)"/>
<path d="" fill="#FDFDFD" transform="translate(0,0)"/>
<path d="" fill="#FDFDFD" transform="translate(0,0)"/>
<path d="" fill="#FDFDFD" transform="translate(0,0)"/>
<path d="" fill="#FDFDFD" transform="translate(0,0)"/>
<path d="" fill="#FDFDFD" transform="translate(0,0)"/>
<path d="" fill="#FDFDFD" transform="translate(0,0)"/>
<path d="" fill="#FDFDFD" transform="translate(0,0)"/>
<path d="" fill="#FDFDFD" transform="translate(0,0)"/>
<path d="" fill="#FDFDFD" transform="translate(0,0)"/>
<path d="" fill="#FDFDFD" transform="translate(0,0)"/>
<path d="" fill="#FDFDFD" transform="translate(0,0)"/>
<path d="" fill="#FDFDFD" transform="translate(0,0)"/>
<path d="" fill="#FDFDFD" transform="translate(0,0)"/>
<path d="" fill="#FDFDFD" transform="translate(0,0)"/>
<path d="" fill="#FDFDFD" transform="translate(0,0)"/>
<path d="" fill="#FDFDFD" transform="translate(0,0)"/>
<path d="" fill="#FDFDFD" transform="translate(0,0)"/>
<path d="" fill="#FDFDFD" transform="translate(0,0)"/>
<path d="" fill="#FDFDFD" transform="translate(0,0)"/>
<path d="" fill="#FDFDFD" transform="translate(0,0)"/>
<path d="" fill="#FDFDFD" transform="translate(0,0)"/>
<path d="" fill="#FDFDFD" transform="translate(0,0)"/>
<path d="" fill="#FDFDFD" transform="translate(0,0)"/>
<path d="" fill="#FDFDFD" transform="translate(0,0)"/>
<path d="" fill="#FDFDFD" transform="translate(0,0)"/>
<path d="" fill="#FDFDFD" transform="translate(0,0)"/>
<path d="" fill="#FDFDFD" transform="translate(0,0)"/>
<path d="" fill="#FDFDFD" transform="translate(0,0)"/>
<path d="" fill="#FDFDFD" transform="translate(0,0)"/>
<path d="" fill="#FDFDFD" transform="translate(0,0)"/>
<path d="" fill="#FDFDFD" transform="translate(0,0)"/>
<path d="" fill="#FDFDFD" transform="translate(0,0)"/>
<path d="" fill="#FDFDFD" transform="translate(0,0)"/>
<path d="" fill="#FDFDFD" transform="translate(0,0)"/>
<path d="" fill="#FDFDFD" transform="translate(0,0)"/>
</svg>
